<svg width="62" height="62" viewBox="0 0 62 62" fill="none" xmlns="http://www.w3.org/2000/svg">
<g clip-path="url(#clip0_1_222)">
<path d="M36.4658 40.3492C50.8833 41.2669 61.8215 45.7267 61.8215 51.0879C61.8215 57.1146 48.0016 62 30.9537 62C13.9059 62 0.0859375 57.1146 0.0859375 51.0879C0.0859375 45.7267 11.0242 41.2669 25.4416 40.3492" fill="#6EC1E4"/>
<g clip-path="url(#clip1_1_222)">
<path d="M30.8969 51.2836C24.4473 51.2836 10.1377 36.8699 10.1377 19.7564C10.1377 8.79055 19.4319 -0.098938 30.8969 -0.098938C42.3619 -0.098938 51.656 8.79055 51.656 19.7564C51.656 36.8699 37.3464 51.2836 30.8969 51.2836Z" fill="url(#paint0_linear_1_222)"/>
<path d="M30.8967 26.743C34.931 26.743 38.2014 23.615 38.2014 19.7564C38.2014 15.8977 34.931 12.7697 30.8967 12.7697C26.8624 12.7697 23.5919 15.8977 23.5919 19.7564C23.5919 23.615 26.8624 26.743 30.8967 26.743Z" fill="white"/>
<path d="M23.2381 34.134C25.2497 34.134 26.8805 32.5742 26.8805 30.6502C26.8805 28.7261 25.2497 27.1664 23.2381 27.1664C21.2265 27.1664 19.5957 28.7261 19.5957 30.6502C19.5957 32.5742 21.2265 34.134 23.2381 34.134Z" fill="white"/>
<path d="M26.8804 30.6502C26.8804 31.7969 25.9085 32.7265 24.7095 32.7265C23.5106 32.7265 22.5387 31.7969 22.5387 30.6502C22.5387 29.5034 23.5106 28.5739 24.7095 28.5739C25.9085 28.5737 26.8804 29.5033 26.8804 30.6502Z" fill="#3B3B44"/>
<path d="M38.5561 34.134C40.5678 34.134 42.1985 32.5742 42.1985 30.6502C42.1985 28.7261 40.5678 27.1664 38.5561 27.1664C36.5445 27.1664 34.9137 28.7261 34.9137 30.6502C34.9137 32.5742 36.5445 34.134 38.5561 34.134Z" fill="white"/>
<path d="M42.1907 30.6502C42.1907 31.7969 41.2188 32.7265 40.0199 32.7265C38.821 32.7265 37.8491 31.7969 37.8491 30.6502C37.8491 29.5034 38.821 28.5739 40.0199 28.5739C41.2188 28.5737 42.1907 29.5033 42.1907 30.6502Z" fill="#3B3B44"/>
<path d="M30.8969 35.3321C31.797 35.3321 32.5267 34.4183 32.5267 33.2911C32.5267 32.1639 31.797 31.2501 30.8969 31.2501C29.9969 31.2501 29.2672 32.1639 29.2672 33.2911C29.2672 34.4183 29.9969 35.3321 30.8969 35.3321Z" fill="white"/>
<path d="M34.5669 47.0234C34.1937 47.0234 33.825 46.8615 33.5834 46.5544C33.175 46.0355 33.2836 45.2979 33.8264 44.9073C34.7597 44.2353 35.725 43.4042 36.6956 42.4368C37.1658 41.9681 37.9445 41.9527 38.4344 42.4026C38.9245 42.8524 38.9405 43.597 38.4702 44.0657C37.4087 45.1237 36.3439 46.0392 35.3056 46.7868C35.084 46.9462 34.8243 47.0234 34.5669 47.0234Z" fill="#E3FCFF"/>
<path d="M40.7518 40.7742C40.5028 40.7742 40.2514 40.7021 40.0339 40.552C39.4829 40.1721 39.3581 39.437 39.7552 38.9101C39.9077 38.7076 40.0638 38.4957 40.219 38.2801C40.6041 37.7449 41.3695 37.6098 41.9292 37.9782C42.4887 38.3465 42.6301 39.0788 42.2449 39.614C42.0798 39.8435 41.9134 40.0695 41.7505 40.2856C41.5102 40.6045 41.1337 40.7742 40.7518 40.7742Z" fill="#E3FCFF"/>
</g>
</g>
<defs>
<linearGradient id="paint0_linear_1_222" x1="30.8969" y1="51.6191" x2="30.8969" y2="-10.1513" gradientUnits="userSpaceOnUse">
<stop stop-color="#FF455E"/>
<stop offset="1" stop-color="#FF919F"/>
</linearGradient>
<clipPath id="clip0_1_222">
<rect width="62" height="62" fill="white"/>
</clipPath>
<clipPath id="clip1_1_222">
<rect width="45.2728" height="53.1429" fill="white" transform="translate(8.26074)"/>
</clipPath>
</defs>
</svg>
