<svg width="1838" height="1015" viewBox="0 0 1838 1015" fill="none" xmlns="http://www.w3.org/2000/svg">
<g filter="url(#filter0_d_1_1345)">
<g clip-path="url(#clip0_1_1345)">
<path d="M27 23H1811V928C1811 958.928 1785.93 984 1755 984H83C52.072 984 27 958.928 27 928V23Z" fill="url(#paint0_linear_1_1345)"/>
<path opacity="0.4" d="M1810.66 27.5214H20.2407V984.442H1810.66V27.5214Z" fill="url(#paint1_linear_1_1345)"/>
<path opacity="0.4" fill-rule="evenodd" clip-rule="evenodd" d="M684.307 27.5214C684.307 27.5214 782.512 858.147 1810.68 984.442H20.2407V27.5214H684.307Z" fill="url(#paint2_linear_1_1345)"/>
<path opacity="0.4" fill-rule="evenodd" clip-rule="evenodd" d="M1357.11 31.483C1357.11 31.483 1340.66 849.803 904.063 984.423H1810.68V27.5023L1357.11 31.483Z" fill="url(#paint3_linear_1_1345)"/>
<path fill-rule="evenodd" clip-rule="evenodd" d="M20.2407 27.5214C20.2407 27.5214 66.1471 688.505 419.522 984.48C419.522 984.48 772.897 1280.46 419.522 984.48L20.2407 984.442V27.5214Z" fill="url(#paint4_linear_1_1345)"/>
<path fill-rule="evenodd" clip-rule="evenodd" d="M1357.11 31.4832C1357.11 31.4832 1361.48 827.583 888.683 992.997H873.966C873.966 992.997 1309.65 924.443 1357.11 31.4832Z" fill="url(#paint5_linear_1_1345)"/>
<path fill-rule="evenodd" clip-rule="evenodd" d="M684.307 27.5214C684.307 27.5214 759.505 516.68 1165.5 757.307L1169.74 748.848C1169.74 748.848 817.586 591.339 684.307 27.5214Z" fill="url(#paint6_linear_1_1345)"/>
<path fill-rule="evenodd" clip-rule="evenodd" d="M20.563 31.4832C20.563 31.4832 103.227 553.081 319.652 1002.7L307.531 1006.53C307.531 1006.53 78.3219 483.973 20.563 31.4832Z" fill="url(#paint7_linear_1_1345)"/>
<g opacity="0.2">
<path d="M981.517 986.758L980.979 985.437C981.875 985.016 1070.91 942.089 1165.18 803.775C1252.19 676.122 1361.55 438.768 1388.46 33.0716L1389.8 33.1673C1377.92 212.475 1349.07 374.195 1304.06 513.79C1268.04 625.501 1221.67 723.375 1166.2 804.732C1071.72 943.294 982.394 986.337 981.517 986.758Z" fill="#FFFFBF"/>
<path d="M1037.45 989.207L1036.72 988.002C1037.68 987.332 1133.77 918.912 1227.4 767.642C1313.8 628.027 1415.69 387.266 1410.48 33.1291L1411.83 33.1099C1414.14 189.662 1395.89 337.334 1357.61 472.03C1326.98 579.799 1283.54 679.548 1228.47 768.503C1134.69 920.003 1038.42 988.537 1037.45 989.207Z" fill="#FFFFBF"/>
<path d="M1162.87 986.528L1161.79 985.666C1162.47 984.69 1231.53 885.477 1304.17 718.303C1371.22 564.028 1455.14 318.655 1474.15 25.8372L1475.49 25.9329C1467.1 155.328 1445.43 286.349 1411.11 415.361C1383.66 518.555 1348.09 620.697 1305.39 718.954C1232.66 886.242 1163.57 985.532 1162.87 986.528Z" fill="#FFFFBF"/>
<path d="M1255.7 984.365L1254.54 983.657C1393.22 718.533 1456.32 473.121 1484.8 313.947C1515.69 141.472 1513.74 30.2583 1513.72 29.1674L1515.06 29.1292C1515.08 30.2392 1517.03 141.548 1486.13 314.177C1467.97 415.553 1442.23 517.924 1409.57 618.439C1368.75 744.083 1316.97 867.2 1255.7 984.365Z" fill="#FFFFBF"/>
<path d="M1307.91 984.193L1306.76 983.427C1442.62 749.901 1496.82 502.9 1518.36 336.798C1541.7 156.821 1532.79 30.4497 1532.7 29.1865L1534.04 29.0717C1534.13 30.3349 1543.05 156.821 1519.7 336.951C1505.98 442.748 1483.98 546.057 1454.31 644.046C1417.22 766.532 1367.96 880.98 1307.91 984.193Z" fill="#FFFFBF"/>
<path d="M1357.63 988.92L1356.41 988.289C1467.87 741.231 1523.76 493.599 1551.05 329.353C1580.61 151.385 1583.85 30.3157 1583.89 29.1292L1585.23 29.1674C1585.19 30.3731 1581.95 151.558 1552.39 329.602C1525.09 493.944 1469.16 741.729 1357.63 988.92Z" fill="#FFFFBF"/>
<path d="M1399.26 986.452L1398.13 985.667C1526.93 774.283 1581.74 525.484 1605.01 353.965C1630.24 168.131 1624.96 30.5262 1624.89 29.1674L1626.23 29.11C1626.28 30.488 1631.58 168.208 1606.34 354.176C1591.51 463.399 1569.19 567.665 1540.02 664.046C1503.55 784.541 1456.19 893.018 1399.26 986.452Z" fill="#FFFFBF"/>
<path d="M1445.58 992.901L1444.47 992.116C1574.29 783.125 1640.21 533.043 1672.64 360.07C1707.78 172.629 1712.28 32.8611 1712.31 31.464L1713.66 31.5023C1713.62 32.8994 1709.11 172.782 1673.94 360.338C1653.28 470.48 1626.26 575.282 1593.59 671.816C1552.77 792.484 1502.96 900.52 1445.58 992.901Z" fill="#FFFFBF"/>
<path d="M1533.95 988.959L1532.79 988.25C1638.98 788.599 1703.02 539.072 1738.04 364.912C1775.98 176.189 1788.98 32.842 1789.1 31.4257L1790.45 31.5597C1790.32 32.9951 1777.32 176.399 1739.35 365.2C1704.31 539.455 1640.23 789.134 1533.95 988.959Z" fill="#FFFFBF"/>
<path d="M1648.79 988.882L1647.55 988.346C1708.57 828.962 1749.48 576.641 1773.04 393.046C1798.57 194.083 1809.82 30.7368 1809.93 29.11L1811.27 29.2057C1811.16 30.8324 1799.92 194.217 1774.37 393.218C1750.79 576.89 1709.86 829.344 1648.79 988.882Z" fill="#FFFFBF"/>
<path d="M1689.14 988.882L1687.91 988.327C1739.28 858.167 1769.71 652.218 1786.2 502.364C1804.07 339.975 1809.85 206.657 1809.93 205.336L1811.27 205.394C1811.21 206.714 1805.41 340.071 1787.55 502.518C1771.04 652.467 1740.56 858.568 1689.14 988.882Z" fill="#FFFFBF"/>
<path d="M1769.52 981.743L1768.25 981.322C1813.22 828.445 1809.96 456.298 1809.91 452.547L1811.25 452.528C1811.3 456.279 1814.58 828.655 1769.52 981.743Z" fill="#FFFFBF"/>
<path d="M1156.05 778.321C1074.85 745.422 996.896 685.691 924.348 600.793C866.339 532.89 811.641 448.815 761.778 350.922C676.877 184.246 634.891 33.2246 634.479 31.7127L635.769 31.3108C636.18 32.8227 678.13 183.71 762.96 350.252C841.219 503.896 973.03 702.667 1156.51 776.982L1156.05 778.321Z" fill="#FFFFBF"/>
<path d="M1139.27 795.967C1062.3 767.164 985.366 709.04 910.598 623.224C850.816 554.593 792.27 468.203 736.588 366.463C641.803 193.222 587.481 33.3205 586.944 31.732L588.216 31.2535C588.753 32.842 643.038 192.629 737.769 365.755C825.178 525.484 965.851 729.538 1139.72 794.627L1139.27 795.967Z" fill="#FFFFBF"/>
<path d="M1100.56 846.512C1017.92 798.474 935.789 725.729 856.438 630.324C792.985 554.019 731.144 463.112 672.669 360.147C573.104 184.82 517.064 33.263 516.509 31.7511L517.762 31.2344C518.317 32.7463 574.339 184.208 673.851 359.42C765.664 521.101 914.358 736.619 1101.22 845.248L1100.56 846.512Z" fill="#FFFFBF"/>
<path d="M1014.34 916.443C931.51 870.128 849.778 794.647 771.393 692.122C708.711 610.133 648.015 510.747 591.008 396.721C493.932 202.619 440.506 31.0813 439.969 29.3589L441.24 28.8995C441.759 30.6029 495.167 202.045 592.19 396.051C681.711 575.072 827.72 810.436 1014.94 915.161L1014.34 916.443Z" fill="#FFFFBF"/>
<path d="M963.021 950.835C888.021 900.769 811.91 821.306 736.838 714.61C676.787 629.291 617.256 526.46 559.873 408.969C462.205 208.954 403.909 33.4736 403.336 31.732L404.608 31.2535C405.181 32.9951 463.441 208.399 561.09 408.319C651.184 592.794 794.167 836.445 963.755 949.61L963.021 950.835Z" fill="#FFFFBF"/>
<path d="M875.488 979.944C732.792 805.306 600.981 556.794 515.542 379.075C422.96 186.523 363.356 33.2822 362.766 31.7702L364.001 31.2152C364.592 32.7463 424.177 185.93 516.724 378.424C602.127 556.067 733.884 804.464 876.491 978.987L875.488 979.944Z" fill="#FFFFBF"/>
<path d="M799.27 984.997C732.147 919.601 664.881 828.483 599.352 714.188C546.946 622.764 495.508 516.393 446.486 398.022C363.035 196.475 314.89 27.7703 314.407 26.0861L315.696 25.665C316.179 27.3492 364.306 195.978 447.739 397.429C524.727 583.339 648.374 835.985 800.183 983.906L799.27 984.997Z" fill="#FFFFBF"/>
<path d="M765.717 984.327C692.185 907.869 620.747 810.187 553.392 694.036C499.5 601.119 448.097 496.24 400.579 382.29C319.67 188.303 277.595 33.2248 277.184 31.6937L278.473 31.2918C278.884 32.842 320.941 187.825 401.797 381.735C476.421 560.679 600.283 810.302 766.648 983.294L765.717 984.327Z" fill="#FFFFBF"/>
<path d="M698.756 987.466C562.881 831.315 434.973 580.2 351.611 397.046C261.285 198.619 202.326 35.0046 201.735 33.3778L202.989 32.8611C203.579 34.4878 262.52 198.064 352.811 396.433C436.137 579.492 563.973 830.473 699.741 986.49L698.756 987.466Z" fill="#FFFFBF"/>
<path d="M640.03 984.901C501.219 792.637 368.298 542.651 281.23 366.788C186.911 176.246 124.604 29.2631 123.978 27.8086L125.195 27.2153C125.822 28.6699 188.11 175.615 282.412 366.118C369.444 541.924 502.329 791.852 641.086 984.021L640.03 984.901Z" fill="#FFFFBF"/>
<path d="M569.667 984.959C433.344 825.268 304.684 572.622 220.767 388.797C129.85 189.643 70.3902 26.1435 69.7993 24.5167L71.0526 24C71.6434 25.6268 131.085 189.088 221.985 388.185C305.866 571.914 434.454 824.426 570.651 983.983L569.667 984.959Z" fill="#FFFFBF"/>
<path d="M437.874 984.94C333.349 861.191 225.28 608.583 153.018 418.462C74.7232 212.513 20.4556 33.4927 19.9185 31.7128L21.1897 31.2726C21.7268 33.0525 75.9944 212.035 154.254 417.945C226.479 607.951 334.477 860.406 438.859 983.983L437.874 984.94Z" fill="#FFFFBF"/>
<path d="M359.812 989.035C269.682 858.434 183.222 616.582 126.556 436.681C65.1801 241.814 24.5734 75.6545 24.1616 74.0086L25.4686 73.645C25.8625 75.2909 66.4692 241.412 127.827 436.241C184.458 616.027 270.864 857.726 360.886 988.174L359.812 989.035Z" fill="#FFFFBF"/>
<path d="M225.781 988.901C124.175 747.662 20.1512 250.465 19.1128 245.47L20.4198 245.164C21.4582 250.159 125.446 747.202 227.016 988.308L225.781 988.901Z" fill="#FFFFBF"/>
<path d="M201.789 988.959C94.4893 786.398 17.7699 422.921 17 419.266L18.307 418.959C19.0769 422.596 95.7605 785.881 202.953 988.251L201.789 988.959Z" fill="#FFFFBF"/>
<path d="M149.562 991.198C79.2169 844.674 22.013 564.775 21.458 561.961L22.765 561.655C23.3379 564.469 80.4881 844.176 150.762 990.528L149.562 991.198Z" fill="#FFFFBF"/>
<path d="M89.9598 1003.04C49.2098 921.955 21.709 727.949 21.4404 725.997L22.7653 725.786C23.0339 727.738 50.4989 921.515 91.1414 1002.37L89.9598 1003.04Z" fill="#FFFFBF"/>
<path d="M1351.94 76.6306C1203.69 23.7703 696.786 64.6308 691.684 65.0519L691.576 63.6165C696.679 63.1955 1203.87 22.3158 1352.37 75.2718L1351.94 76.6306Z" fill="#FFFFBF"/>
<path d="M717.519 147.347L717.34 145.931C721.136 145.414 1099.95 93.9891 1349.36 145.931L1349.11 147.347C1099.92 95.4245 721.315 146.83 717.519 147.347Z" fill="#FFFFBF"/>
<path d="M748.243 233.106L747.975 231.69C750.786 231.097 1032.94 172.112 1344.17 192.284L1344.09 193.719C1033.03 173.548 751.054 232.513 748.243 233.106Z" fill="#FFFFBF"/>
<path d="M779.629 306.119L779.396 304.703C782.888 304.033 1131.55 239.135 1334.84 274.407L1334.62 275.823C1131.57 240.608 783.121 305.469 779.629 306.119Z" fill="#FFFFBF"/>
<path d="M797.283 340.243L796.996 338.846C799.807 338.214 1079.99 276.034 1325.76 312.435L1325.58 313.851C1080.04 277.488 800.076 339.612 797.283 340.243Z" fill="#FFFFBF"/>
<path d="M820.003 393.18L819.788 391.764C822.689 391.266 1111.98 341.736 1312.85 380.089L1312.62 381.505C1111.97 343.171 822.903 392.663 820.003 393.18Z" fill="#FFFFBF"/>
<path d="M1310.7 408.318C1155.04 385.027 834.452 407.266 831.229 407.496L831.14 406.06C834.362 405.83 1155.1 383.592 1310.9 406.902L1310.7 408.318Z" fill="#FFFFBF"/>
<path d="M883.957 457.963L883.796 456.547C886.284 456.203 1135.21 423.208 1296.85 444.126L1296.68 445.543C1135.21 424.643 886.445 457.638 883.957 457.963Z" fill="#FFFFBF"/>
<path d="M920.32 511.57L920.213 510.135C922.719 509.924 1172.45 489.35 1283.15 496.853L1283.06 498.288C1172.47 490.805 922.827 511.36 920.32 511.57Z" fill="#FFFFBF"/>
<path d="M998.848 611.319L998.633 609.903C999.94 609.674 1130.46 586.554 1247.9 594.057L1247.82 595.492C1130.55 588.009 1000.15 611.09 998.848 611.319Z" fill="#FFFFBF"/>
<path d="M1071.11 688.409L1070.84 687.012C1071.81 686.801 1167.94 665.367 1217.64 670.936L1217.49 672.371C1167.99 666.802 1072.08 688.199 1071.11 688.409Z" fill="#FFFFBF"/>
</g>
<g style="mix-blend-mode:multiply" opacity="0.3">
<path fill-rule="evenodd" clip-rule="evenodd" d="M1346.94 33.1099C1346.94 33.1099 1349.25 392.453 1132.41 726.552L1158.75 743.336C1158.75 743.336 1060.65 929.017 858.103 986.088L904.063 984.423C904.045 984.442 1322.04 872.042 1346.94 33.1099Z" fill="url(#paint8_linear_1_1345)"/>
</g>
<g style="mix-blend-mode:multiply" opacity="0.3">
<path fill-rule="evenodd" clip-rule="evenodd" d="M24.8242 66.315C24.8242 66.315 146.483 679.797 331.792 1020.36L397.93 1028.94C397.912 1028.94 157.978 685.002 24.8242 66.315Z" fill="url(#paint9_linear_1_1345)"/>
</g>
</g>
</g>
<defs>
<filter id="filter0_d_1_1345" x="0" y="0" width="1838" height="1015" filterUnits="userSpaceOnUse" color-interpolation-filters="sRGB">
<feFlood flood-opacity="0" result="BackgroundImageFix"/>
<feColorMatrix in="SourceAlpha" type="matrix" values="0 0 0 0 0 0 0 0 0 0 0 0 0 0 0 0 0 0 127 0" result="hardAlpha"/>
<feOffset dy="4"/>
<feGaussianBlur stdDeviation="13.5"/>
<feColorMatrix type="matrix" values="0 0 0 0 0.704167 0 0 0 0 0.41581 0 0 0 0 0.149635 0 0 0 0.25 0"/>
<feBlend mode="normal" in2="BackgroundImageFix" result="effect1_dropShadow_1_1345"/>
<feBlend mode="normal" in="SourceGraphic" in2="effect1_dropShadow_1_1345" result="shape"/>
</filter>
<linearGradient id="paint0_linear_1_1345" x1="919" y1="23" x2="919" y2="984" gradientUnits="userSpaceOnUse">
<stop stop-color="#FFB648"/>
<stop offset="1" stop-color="#FFB648"/>
</linearGradient>
<linearGradient id="paint1_linear_1_1345" x1="915.457" y1="984.433" x2="915.457" y2="27.5126" gradientUnits="userSpaceOnUse">
<stop offset="0.0171" stop-color="#FFC42C"/>
<stop offset="0.9665" stop-color="#FFD600"/>
</linearGradient>
<linearGradient id="paint2_linear_1_1345" x1="915.458" y1="984.433" x2="915.458" y2="27.5126" gradientUnits="userSpaceOnUse">
<stop offset="0.0171" stop-color="#FF8B2C"/>
<stop offset="0.0422" stop-color="#FF8D2A"/>
<stop offset="0.3782" stop-color="#FFA413"/>
<stop offset="0.6939" stop-color="#FFB105"/>
<stop offset="0.9665" stop-color="#FFB600"/>
</linearGradient>
<linearGradient id="paint3_linear_1_1345" x1="1357.36" y1="984.433" x2="1357.36" y2="27.5126" gradientUnits="userSpaceOnUse">
<stop offset="0.0171" stop-color="#FFA12C"/>
<stop offset="0.9665" stop-color="#FFC500"/>
</linearGradient>
<linearGradient id="paint4_linear_1_1345" x1="298.409" y1="1116.01" x2="298.409" y2="27.5126" gradientUnits="userSpaceOnUse">
<stop offset="0.0171" stop-color="#FFA12C"/>
<stop offset="0.9665" stop-color="#FFB600"/>
</linearGradient>
<linearGradient id="paint5_linear_1_1345" x1="1115.54" y1="992.996" x2="1115.54" y2="31.4912" gradientUnits="userSpaceOnUse">
<stop offset="0.0171" stop-color="#FFAE2C"/>
<stop offset="0.9665" stop-color="#FFCD00"/>
</linearGradient>
<linearGradient id="paint6_linear_1_1345" x1="927.018" y1="757.301" x2="927.018" y2="27.5126" gradientUnits="userSpaceOnUse">
<stop offset="0.0171" stop-color="#FFAE2C"/>
<stop offset="0.9665" stop-color="#FFCD00"/>
</linearGradient>
<linearGradient id="paint7_linear_1_1345" x1="170.104" y1="1006.53" x2="170.104" y2="31.4912" gradientUnits="userSpaceOnUse">
<stop offset="0.0171" stop-color="#FFAE2C"/>
<stop offset="0.9665" stop-color="#FFCD00"/>
</linearGradient>
<linearGradient id="paint8_linear_1_1345" x1="858.099" y1="509.607" x2="1346.94" y2="509.607" gradientUnits="userSpaceOnUse">
<stop offset="0.00558659" stop-color="#DB5098"/>
<stop offset="1" stop-color="#FFFED1"/>
</linearGradient>
<linearGradient id="paint9_linear_1_1345" x1="24.8172" y1="547.627" x2="397.916" y2="547.627" gradientUnits="userSpaceOnUse">
<stop offset="0.00558659" stop-color="#DB5098"/>
<stop offset="1" stop-color="#FFFED1"/>
</linearGradient>
<clipPath id="clip0_1_1345">
<path d="M27 23H1811V928C1811 958.928 1785.93 984 1755 984H83C52.072 984 27 958.928 27 928V23Z" fill="white"/>
</clipPath>
</defs>
</svg>
