<svg width="1838" height="1012" viewBox="0 0 1838 1012" fill="none" xmlns="http://www.w3.org/2000/svg">
<g filter="url(#filter0_d_1_479)">
<g clip-path="url(#clip0_1_479)">
<path d="M27 23H1811V925C1811 955.928 1785.93 981 1755 981H83C52.072 981 27 955.928 27 925V23Z" fill="url(#paint0_linear_1_479)"/>
<path opacity="0.4" d="M1810.66 27.5073H20.2407V981.44H1810.66V27.5073Z" fill="url(#paint1_linear_1_479)"/>
<path opacity="0.4" fill-rule="evenodd" clip-rule="evenodd" d="M684.307 27.5073C684.307 27.5073 782.512 855.54 1810.68 981.44H20.2407V27.5073H684.307Z" fill="url(#paint2_linear_1_479)"/>
<path opacity="0.4" fill-rule="evenodd" clip-rule="evenodd" d="M1357.11 31.4566C1357.11 31.4566 1340.66 847.222 904.063 981.421H1810.68V27.4882L1357.11 31.4566Z" fill="url(#paint3_linear_1_479)"/>
<path fill-rule="evenodd" clip-rule="evenodd" d="M20.2407 27.5073C20.2407 27.5073 66.1471 686.427 419.522 981.478C419.522 981.478 772.897 1276.53 419.522 981.478L20.2407 981.44V27.5073Z" fill="url(#paint4_linear_1_479)"/>
<path fill-rule="evenodd" clip-rule="evenodd" d="M1357.11 31.4567C1357.11 31.4567 1361.48 825.072 888.683 989.969H873.966C873.966 989.969 1309.65 921.629 1357.11 31.4567Z" fill="url(#paint5_linear_1_479)"/>
<path fill-rule="evenodd" clip-rule="evenodd" d="M684.307 27.5073C684.307 27.5073 759.505 515.139 1165.5 755.015L1169.74 746.582C1169.74 746.582 817.586 589.565 684.307 27.5073Z" fill="url(#paint6_linear_1_479)"/>
<path fill-rule="evenodd" clip-rule="evenodd" d="M20.563 31.4567C20.563 31.4567 103.227 551.427 319.652 999.641L307.531 1003.46C307.531 1003.46 78.3219 482.533 20.563 31.4567Z" fill="url(#paint7_linear_1_479)"/>
<g opacity="0.2">
<path d="M981.517 983.749L980.979 982.433C981.875 982.013 1070.91 939.219 1165.18 801.338C1252.19 674.083 1361.55 437.47 1388.46 33.0402L1389.8 33.1356C1377.92 211.884 1349.07 373.098 1304.06 512.258C1268.04 623.62 1221.67 721.188 1166.2 802.292C1071.72 940.421 982.394 983.329 981.517 983.749Z" fill="#FFFFBF"/>
<path d="M1037.45 986.191L1036.72 984.989C1037.68 984.321 1133.77 916.115 1227.4 765.317C1313.8 626.139 1415.69 386.129 1410.48 33.0974L1411.83 33.0784C1414.14 189.142 1395.89 336.353 1357.61 470.628C1326.98 578.06 1283.54 677.498 1228.47 766.176C1134.69 917.203 1038.42 985.523 1037.45 986.191Z" fill="#FFFFBF"/>
<path d="M1162.87 983.52L1161.79 982.661C1162.47 981.688 1231.53 882.784 1304.17 716.132C1371.22 562.339 1455.14 317.732 1474.15 25.8284L1475.49 25.9238C1467.1 154.915 1445.43 285.527 1411.11 414.136C1383.66 517.008 1348.09 618.831 1305.39 716.781C1232.66 883.548 1163.57 982.528 1162.87 983.52Z" fill="#FFFFBF"/>
<path d="M1255.7 981.364L1254.54 980.658C1393.22 716.362 1456.32 471.716 1484.8 313.039C1515.69 141.102 1513.74 30.2357 1513.72 29.1482L1515.06 29.11C1515.08 30.2166 1517.03 141.178 1486.13 313.268C1467.97 414.327 1442.23 516.379 1409.57 616.58C1368.75 741.832 1316.97 864.565 1255.7 981.364Z" fill="#FFFFBF"/>
<path d="M1307.91 981.192L1306.76 980.429C1442.62 747.632 1496.82 501.402 1518.36 335.819C1541.7 156.403 1532.79 30.4265 1532.7 29.1673L1534.04 29.0528C1534.13 30.312 1543.05 156.403 1519.7 335.971C1505.98 441.438 1483.98 544.425 1454.31 642.107C1417.22 764.211 1367.96 878.301 1307.91 981.192Z" fill="#FFFFBF"/>
<path d="M1357.63 985.905L1356.41 985.275C1467.87 738.989 1523.76 492.13 1551.05 328.397C1580.61 150.985 1583.85 30.2929 1583.89 29.11L1585.23 29.1482C1585.19 30.3502 1581.95 151.156 1552.39 328.645C1525.09 492.474 1469.16 739.485 1357.63 985.905Z" fill="#FFFFBF"/>
<path d="M1399.26 983.444L1398.13 982.662C1526.93 771.938 1581.74 523.915 1605.01 352.932C1630.24 167.678 1624.96 30.5028 1624.89 29.1482L1626.23 29.0909C1626.28 30.4646 1631.58 167.755 1606.34 353.142C1591.51 462.024 1569.19 565.965 1540.02 662.045C1503.55 782.164 1456.19 890.302 1399.26 983.444Z" fill="#FFFFBF"/>
<path d="M1445.58 989.873L1444.47 989.091C1574.29 780.752 1640.21 531.451 1672.64 359.018C1707.78 172.162 1712.28 32.8304 1712.31 31.4376L1713.66 31.4758C1713.62 32.8685 1709.11 172.314 1673.94 359.285C1653.28 469.083 1626.26 573.558 1593.59 669.791C1552.77 790.081 1502.96 897.781 1445.58 989.873Z" fill="#FFFFBF"/>
<path d="M1533.95 985.943L1532.79 985.237C1638.98 786.209 1703.02 537.461 1738.04 363.845C1775.98 175.71 1788.98 32.8112 1789.1 31.3994L1790.45 31.533C1790.32 32.9639 1777.32 175.92 1739.35 364.131C1704.31 537.843 1640.23 786.743 1533.95 985.943Z" fill="#FFFFBF"/>
<path d="M1648.79 985.867L1647.55 985.333C1708.57 826.446 1749.48 574.913 1773.04 391.891C1798.57 193.549 1809.82 30.7126 1809.93 29.0909L1811.27 29.1863C1811.16 30.808 1799.92 193.683 1774.37 392.063C1750.79 575.161 1709.86 826.827 1648.79 985.867Z" fill="#FFFFBF"/>
<path d="M1689.14 985.867L1687.91 985.313C1739.28 855.559 1769.71 650.254 1786.2 500.868C1804.07 338.986 1809.85 206.084 1809.93 204.767L1811.27 204.824C1811.21 206.141 1805.41 339.081 1787.55 501.021C1771.04 650.502 1740.56 855.96 1689.14 985.867Z" fill="#FFFFBF"/>
<path d="M1769.52 978.75L1768.25 978.331C1813.22 825.93 1809.96 454.946 1809.91 451.206L1811.25 451.187C1811.3 454.927 1814.58 826.14 1769.52 978.75Z" fill="#FFFFBF"/>
<path d="M1156.05 775.963C1074.85 743.167 996.896 683.623 924.349 598.99C866.339 531.298 811.642 447.486 761.779 349.899C676.877 183.742 634.892 33.1927 634.48 31.6855L635.769 31.2849C636.181 32.7921 678.13 183.208 762.96 349.231C841.219 502.394 973.03 700.545 1156.51 774.628L1156.05 775.963Z" fill="#FFFFBF"/>
<path d="M1139.27 793.554C1062.3 764.841 985.366 706.899 910.598 621.35C850.816 552.934 792.269 466.813 736.587 365.391C641.803 192.691 587.481 33.2883 586.944 31.7047L588.215 31.2278C588.752 32.8113 643.038 192.099 737.769 364.685C825.177 523.915 965.851 727.332 1139.72 792.219L1139.27 793.554Z" fill="#FFFFBF"/>
<path d="M1100.56 843.941C1017.92 796.053 935.789 723.535 856.438 628.428C792.986 552.362 731.144 461.738 672.669 359.095C573.104 184.315 517.064 33.231 516.509 31.7238L517.762 31.2087C518.317 32.7159 574.34 183.704 673.851 358.37C765.664 519.546 914.358 734.391 1101.22 842.682L1100.56 843.941Z" fill="#FFFFBF"/>
<path d="M1014.34 913.654C931.51 867.484 849.778 792.238 771.393 690.033C708.711 608.3 648.015 509.225 591.008 395.554C493.932 202.058 440.506 31.0561 439.969 29.339L441.24 28.8811C441.759 30.5791 495.167 201.486 592.19 394.886C681.711 573.348 827.72 807.978 1014.94 912.376L1014.34 913.654Z" fill="#FFFFBF"/>
<path d="M963.022 947.939C888.021 898.029 811.91 818.814 736.838 712.451C676.787 627.398 617.256 524.888 559.873 407.764C462.206 208.373 403.91 33.4409 403.337 31.7047L404.608 31.2278C405.181 32.9639 463.441 207.82 561.091 407.116C651.184 591.015 794.167 833.905 963.756 946.718L963.022 947.939Z" fill="#FFFFBF"/>
<path d="M875.488 976.957C732.792 802.864 600.981 555.128 515.542 377.963C422.96 186.013 363.356 33.2501 362.766 31.7429L364.001 31.1896C364.592 32.7159 424.177 185.421 516.724 377.315C602.127 554.403 733.884 802.025 876.491 976.003L875.488 976.957Z" fill="#FFFFBF"/>
<path d="M799.27 981.994C732.147 916.802 664.881 825.969 599.352 712.031C546.946 620.892 495.507 514.853 446.486 396.851C363.034 195.934 314.89 27.7554 314.406 26.0765L315.696 25.6567C316.179 27.3357 364.305 195.438 447.739 396.26C524.727 581.59 648.373 833.447 800.183 980.906L799.27 981.994Z" fill="#FFFFBF"/>
<path d="M765.717 981.326C692.185 905.107 620.747 807.73 553.392 691.941C499.5 599.314 448.097 494.763 400.579 381.169C319.67 187.787 277.595 33.1929 277.184 31.6666L278.473 31.2659C278.884 32.8113 320.941 187.31 401.797 380.615C476.421 559.001 600.283 807.844 766.648 980.296L765.717 981.326Z" fill="#FFFFBF"/>
<path d="M698.756 984.455C562.881 828.792 434.973 578.461 351.611 395.878C261.285 198.071 202.326 34.9671 201.735 33.3454L202.989 32.8303C203.579 34.452 262.52 197.517 352.811 395.268C436.137 577.755 563.973 827.953 699.741 983.482L698.756 984.455Z" fill="#FFFFBF"/>
<path d="M640.03 981.899C501.219 790.234 368.298 541.029 281.23 365.715C186.911 175.768 124.604 29.2436 123.978 27.7936L125.195 27.2022C125.822 28.6522 188.11 175.138 282.412 365.047C369.444 540.304 502.329 789.452 641.086 981.021L640.03 981.899Z" fill="#FFFFBF"/>
<path d="M569.667 981.956C433.344 822.763 304.684 570.906 220.767 387.655C129.85 189.123 70.3902 26.1337 69.7993 24.512L71.0526 23.9969C71.6434 25.6186 131.085 188.569 221.985 387.045C305.866 570.2 434.454 821.924 570.651 980.983L569.667 981.956Z" fill="#FFFFBF"/>
<path d="M437.874 981.937C333.349 858.574 225.28 606.755 153.018 417.227C74.7232 211.922 20.4556 33.46 19.9185 31.6856L21.1897 31.2468C21.7268 33.0211 75.9944 211.445 154.254 416.712C226.479 606.125 334.477 857.792 438.859 980.983L437.874 981.937Z" fill="#FFFFBF"/>
<path d="M359.812 986.019C269.682 855.826 183.222 614.729 126.556 435.39C65.1801 241.131 24.5734 75.4901 24.1616 73.8494L25.4686 73.4869C25.8625 75.1276 66.4692 240.73 127.827 434.951C184.458 614.176 270.864 855.12 360.886 985.161L359.812 986.019Z" fill="#FFFFBF"/>
<path d="M225.781 985.886C124.175 745.399 20.1512 249.755 19.1128 244.775L20.4198 244.47C21.4582 249.45 125.446 744.942 227.016 985.295L225.781 985.886Z" fill="#FFFFBF"/>
<path d="M201.789 985.943C94.4893 784.015 17.7699 421.673 17 418.029L18.307 417.723C19.0769 421.348 95.7605 783.499 202.953 985.237L201.789 985.943Z" fill="#FFFFBF"/>
<path d="M149.562 988.175C79.2169 842.109 22.013 563.083 21.458 560.279L22.765 559.974C23.3379 562.778 80.4881 841.613 150.762 987.508L149.562 988.175Z" fill="#FFFFBF"/>
<path d="M89.9595 999.985C49.2096 919.149 21.7087 725.748 21.4402 723.802L22.7651 723.592C23.0337 725.538 50.4987 918.71 91.1412 999.317L89.9595 999.985Z" fill="#FFFFBF"/>
<path d="M1351.94 76.4632C1203.69 23.7679 696.786 64.5009 691.684 64.9206L691.576 63.4897C696.679 63.07 1203.87 22.318 1352.37 75.1086L1351.94 76.4632Z" fill="#FFFFBF"/>
<path d="M717.519 146.959L717.34 145.547C721.136 145.032 1099.95 93.7675 1349.36 145.547L1349.11 146.959C1099.92 95.1984 721.315 146.444 717.519 146.959Z" fill="#FFFFBF"/>
<path d="M748.243 232.45L747.974 231.039C750.785 230.447 1032.94 171.647 1344.17 191.756L1344.09 193.187C1033.03 173.078 751.054 231.859 748.243 232.45Z" fill="#FFFFBF"/>
<path d="M779.629 305.235L779.396 303.824C782.888 303.156 1131.55 238.46 1334.84 273.622L1334.62 275.034C1131.57 239.929 783.121 304.587 779.629 305.235Z" fill="#FFFFBF"/>
<path d="M797.283 339.253L796.996 337.86C799.807 337.23 1079.99 275.244 1325.76 311.531L1325.58 312.943C1080.04 276.694 800.076 338.623 797.283 339.253Z" fill="#FFFFBF"/>
<path d="M820.003 392.024L819.788 390.612C822.689 390.116 1111.98 340.741 1312.85 378.974L1312.62 380.386C1111.97 342.172 822.903 391.509 820.003 392.024Z" fill="#FFFFBF"/>
<path d="M1310.7 407.116C1155.04 383.897 834.452 406.066 831.229 406.295L831.139 404.864C834.362 404.635 1155.1 382.466 1310.9 405.704L1310.7 407.116Z" fill="#FFFFBF"/>
<path d="M883.957 456.606L883.796 455.194C886.284 454.85 1135.21 421.959 1296.85 442.812L1296.68 444.224C1135.21 423.39 886.445 456.281 883.957 456.606Z" fill="#FFFFBF"/>
<path d="M920.32 510.045L920.213 508.614C922.719 508.404 1172.45 487.894 1283.15 495.373L1283.06 496.804C1172.47 489.344 922.827 509.835 920.32 510.045Z" fill="#FFFFBF"/>
<path d="M998.848 609.483L998.633 608.071C999.94 607.842 1130.46 584.795 1247.9 592.274L1247.82 593.705C1130.55 586.245 1000.16 609.254 998.848 609.483Z" fill="#FFFFBF"/>
<path d="M1071.11 686.332L1070.84 684.939C1071.81 684.729 1167.94 663.361 1217.64 668.913L1217.49 670.344C1167.99 664.792 1072.08 686.122 1071.11 686.332Z" fill="#FFFFBF"/>
</g>
<g style="mix-blend-mode:multiply" opacity="0.3">
<path fill-rule="evenodd" clip-rule="evenodd" d="M1346.94 33.0784C1346.94 33.0784 1349.25 391.299 1132.41 724.355L1158.75 741.087C1158.75 741.087 1060.65 926.189 858.103 983.081L904.063 981.421C904.045 981.44 1322.04 869.391 1346.94 33.0784Z" fill="url(#paint8_linear_1_479)"/>
</g>
<g style="mix-blend-mode:multiply" opacity="0.3">
<path fill-rule="evenodd" clip-rule="evenodd" d="M24.8242 66.1798C24.8242 66.1798 146.483 677.746 331.792 1017.25L397.93 1025.8C397.912 1025.8 157.978 682.936 24.8242 66.1798Z" fill="url(#paint9_linear_1_479)"/>
</g>
</g>
</g>
<defs>
<filter id="filter0_d_1_479" x="0" y="0" width="1838" height="1012" filterUnits="userSpaceOnUse" color-interpolation-filters="sRGB">
<feFlood flood-opacity="0" result="BackgroundImageFix"/>
<feColorMatrix in="SourceAlpha" type="matrix" values="0 0 0 0 0 0 0 0 0 0 0 0 0 0 0 0 0 0 127 0" result="hardAlpha"/>
<feOffset dy="4"/>
<feGaussianBlur stdDeviation="13.5"/>
<feColorMatrix type="matrix" values="0 0 0 0 0.704167 0 0 0 0 0.41581 0 0 0 0 0.149635 0 0 0 0.25 0"/>
<feBlend mode="normal" in2="BackgroundImageFix" result="effect1_dropShadow_1_479"/>
<feBlend mode="normal" in="SourceGraphic" in2="effect1_dropShadow_1_479" result="shape"/>
</filter>
<linearGradient id="paint0_linear_1_479" x1="919" y1="23" x2="919" y2="981" gradientUnits="userSpaceOnUse">
<stop stop-color="#FFB648"/>
<stop offset="1" stop-color="#FFB648"/>
</linearGradient>
<linearGradient id="paint1_linear_1_479" x1="915.457" y1="981.431" x2="915.457" y2="27.4986" gradientUnits="userSpaceOnUse">
<stop offset="0.0171" stop-color="#FFC42C"/>
<stop offset="0.9665" stop-color="#FFD600"/>
</linearGradient>
<linearGradient id="paint2_linear_1_479" x1="915.458" y1="981.431" x2="915.458" y2="27.4986" gradientUnits="userSpaceOnUse">
<stop offset="0.0171" stop-color="#FF8B2C"/>
<stop offset="0.0422" stop-color="#FF8D2A"/>
<stop offset="0.3782" stop-color="#FFA413"/>
<stop offset="0.6939" stop-color="#FFB105"/>
<stop offset="0.9665" stop-color="#FFB600"/>
</linearGradient>
<linearGradient id="paint3_linear_1_479" x1="1357.36" y1="981.432" x2="1357.36" y2="27.4986" gradientUnits="userSpaceOnUse">
<stop offset="0.0171" stop-color="#FFA12C"/>
<stop offset="0.9665" stop-color="#FFC500"/>
</linearGradient>
<linearGradient id="paint4_linear_1_479" x1="298.409" y1="1112.6" x2="298.409" y2="27.4985" gradientUnits="userSpaceOnUse">
<stop offset="0.0171" stop-color="#FFA12C"/>
<stop offset="0.9665" stop-color="#FFB600"/>
</linearGradient>
<linearGradient id="paint5_linear_1_479" x1="1115.54" y1="989.967" x2="1115.54" y2="31.4647" gradientUnits="userSpaceOnUse">
<stop offset="0.0171" stop-color="#FFAE2C"/>
<stop offset="0.9665" stop-color="#FFCD00"/>
</linearGradient>
<linearGradient id="paint6_linear_1_479" x1="927.018" y1="755.009" x2="927.018" y2="27.4986" gradientUnits="userSpaceOnUse">
<stop offset="0.0171" stop-color="#FFAE2C"/>
<stop offset="0.9665" stop-color="#FFCD00"/>
</linearGradient>
<linearGradient id="paint7_linear_1_479" x1="170.104" y1="1003.46" x2="170.104" y2="31.4647" gradientUnits="userSpaceOnUse">
<stop offset="0.0171" stop-color="#FFAE2C"/>
<stop offset="0.9665" stop-color="#FFCD00"/>
</linearGradient>
<linearGradient id="paint8_linear_1_479" x1="858.099" y1="508.088" x2="1346.94" y2="508.088" gradientUnits="userSpaceOnUse">
<stop offset="0.00558659" stop-color="#DB5098"/>
<stop offset="1" stop-color="#FFFED1"/>
</linearGradient>
<linearGradient id="paint9_linear_1_479" x1="24.8172" y1="545.99" x2="397.916" y2="545.99" gradientUnits="userSpaceOnUse">
<stop offset="0.00558659" stop-color="#DB5098"/>
<stop offset="1" stop-color="#FFFED1"/>
</linearGradient>
<clipPath id="clip0_1_479">
<path d="M27 23H1811V925C1811 955.928 1785.93 981 1755 981H83C52.072 981 27 955.928 27 925V23Z" fill="white"/>
</clipPath>
</defs>
</svg>
