<svg width="1920" height="1104" viewBox="0 0 1920 1104" fill="none" xmlns="http://www.w3.org/2000/svg">
<g filter="url(#filter0_d_1_293)">
<g clip-path="url(#clip0_1_293)">
<path d="M75 70H1859V975C1859 1005.93 1833.93 1031 1803 1031H131C100.072 1031 75 1005.93 75 975V70Z" fill="url(#paint0_linear_1_293)"/>
<path opacity="0.4" d="M1858.66 74.5214H68.2406V1031.44H1858.66V74.5214Z" fill="url(#paint1_linear_1_293)"/>
<path opacity="0.4" fill-rule="evenodd" clip-rule="evenodd" d="M732.307 74.5214C732.307 74.5214 830.512 905.147 1858.68 1031.44H68.2406V74.5214H732.307Z" fill="url(#paint2_linear_1_293)"/>
<path opacity="0.4" fill-rule="evenodd" clip-rule="evenodd" d="M1405.11 78.483C1405.11 78.483 1388.66 896.803 952.063 1031.42H1858.68V74.5023L1405.11 78.483Z" fill="url(#paint3_linear_1_293)"/>
<path fill-rule="evenodd" clip-rule="evenodd" d="M68.2406 74.5214C68.2406 74.5214 114.147 735.505 467.522 1031.48C467.522 1031.48 820.897 1327.46 467.522 1031.48L68.2406 1031.44V74.5214Z" fill="url(#paint4_linear_1_293)"/>
<path fill-rule="evenodd" clip-rule="evenodd" d="M1405.11 78.4832C1405.11 78.4832 1409.48 874.583 936.683 1040H921.966C921.966 1040 1357.65 971.443 1405.11 78.4832Z" fill="url(#paint5_linear_1_293)"/>
<path fill-rule="evenodd" clip-rule="evenodd" d="M732.307 74.5214C732.307 74.5214 807.505 563.68 1213.5 804.307L1217.74 795.848C1217.74 795.848 865.586 638.339 732.307 74.5214Z" fill="url(#paint6_linear_1_293)"/>
<path fill-rule="evenodd" clip-rule="evenodd" d="M68.563 78.4832C68.563 78.4832 151.227 600.081 367.652 1049.7L355.531 1053.53C355.531 1053.53 126.322 530.973 68.563 78.4832Z" fill="url(#paint7_linear_1_293)"/>
<g opacity="0.2">
<path d="M1029.52 1033.76L1028.98 1032.44C1029.87 1032.02 1118.91 989.089 1213.18 850.775C1300.19 723.122 1409.55 485.768 1436.46 80.0716L1437.8 80.1673C1425.92 259.475 1397.07 421.195 1352.06 560.79C1316.04 672.501 1269.67 770.375 1214.2 851.732C1119.72 990.294 1030.39 1033.34 1029.52 1033.76Z" fill="#FFFFBF"/>
<path d="M1085.45 1036.21L1084.72 1035C1085.68 1034.33 1181.77 965.912 1275.4 814.642C1361.8 675.027 1463.69 434.266 1458.48 80.1291L1459.83 80.1099C1462.14 236.662 1443.89 384.334 1405.61 519.03C1374.98 626.799 1331.54 726.548 1276.47 815.503C1182.69 967.003 1086.42 1035.54 1085.45 1036.21Z" fill="#FFFFBF"/>
<path d="M1210.87 1033.53L1209.79 1032.67C1210.47 1031.69 1279.53 932.477 1352.17 765.303C1419.22 611.028 1503.14 365.655 1522.15 72.8372L1523.49 72.9329C1515.1 202.328 1493.43 333.349 1459.11 462.361C1431.66 565.555 1396.09 667.697 1353.39 765.954C1280.66 933.242 1211.57 1032.53 1210.87 1033.53Z" fill="#FFFFBF"/>
<path d="M1303.7 1031.37L1302.54 1030.66C1441.22 765.533 1504.32 520.121 1532.8 360.947C1563.69 188.472 1561.74 77.2583 1561.72 76.1674L1563.06 76.1292C1563.08 77.2392 1565.03 188.548 1534.13 361.177C1515.97 462.553 1490.23 564.924 1457.57 665.439C1416.75 791.083 1364.97 914.2 1303.7 1031.37Z" fill="#FFFFBF"/>
<path d="M1355.91 1031.19L1354.76 1030.43C1490.62 796.901 1544.82 549.9 1566.36 383.798C1589.7 203.821 1580.79 77.4497 1580.7 76.1865L1582.04 76.0717C1582.13 77.3349 1591.05 203.821 1567.7 383.951C1553.98 489.748 1531.98 593.057 1502.31 691.046C1465.22 813.532 1415.96 927.98 1355.91 1031.19Z" fill="#FFFFBF"/>
<path d="M1405.63 1035.92L1404.41 1035.29C1515.87 788.231 1571.76 540.599 1599.05 376.353C1628.61 198.385 1631.85 77.3157 1631.89 76.1292L1633.23 76.1674C1633.19 77.3731 1629.95 198.558 1600.39 376.602C1573.09 540.944 1517.16 788.729 1405.63 1035.92Z" fill="#FFFFBF"/>
<path d="M1447.26 1033.45L1446.13 1032.67C1574.93 821.283 1629.74 572.484 1653.01 400.965C1678.24 215.131 1672.96 77.5262 1672.89 76.1674L1674.23 76.11C1674.28 77.488 1679.58 215.208 1654.34 401.176C1639.51 510.399 1617.19 614.665 1588.02 711.046C1551.55 831.541 1504.19 940.018 1447.26 1033.45Z" fill="#FFFFBF"/>
<path d="M1493.58 1039.9L1492.47 1039.12C1622.29 830.125 1688.21 580.043 1720.64 407.07C1755.78 219.629 1760.28 79.8611 1760.31 78.464L1761.66 78.5023C1761.62 79.8994 1757.11 219.782 1721.94 407.338C1701.28 517.48 1674.26 622.282 1641.59 718.816C1600.77 839.484 1550.96 947.52 1493.58 1039.9Z" fill="#FFFFBF"/>
<path d="M1581.95 1035.96L1580.79 1035.25C1686.98 835.599 1751.02 586.072 1786.04 411.912C1823.98 223.189 1836.98 79.842 1837.1 78.4257L1838.45 78.5597C1838.32 79.9951 1825.32 223.399 1787.35 412.2C1752.31 586.455 1688.23 836.134 1581.95 1035.96Z" fill="#FFFFBF"/>
<path d="M1696.79 1035.88L1695.55 1035.35C1756.57 875.962 1797.48 623.641 1821.04 440.046C1846.57 241.083 1857.82 77.7368 1857.93 76.11L1859.27 76.2057C1859.16 77.8324 1847.92 241.217 1822.37 440.218C1798.79 623.89 1757.86 876.344 1696.79 1035.88Z" fill="#FFFFBF"/>
<path d="M1737.14 1035.88L1735.91 1035.33C1787.28 905.167 1817.71 699.218 1834.2 549.364C1852.07 386.975 1857.85 253.657 1857.93 252.336L1859.27 252.394C1859.21 253.714 1853.41 387.071 1835.55 549.518C1819.04 699.467 1788.56 905.568 1737.14 1035.88Z" fill="#FFFFBF"/>
<path d="M1817.52 1028.74L1816.25 1028.32C1861.22 875.445 1857.96 503.298 1857.91 499.547L1859.25 499.528C1859.3 503.279 1862.58 875.655 1817.52 1028.74Z" fill="#FFFFBF"/>
<path d="M1204.05 825.321C1122.85 792.422 1044.9 732.691 972.349 647.793C914.339 579.89 859.642 495.815 809.779 397.922C724.877 231.246 682.892 80.2246 682.48 78.7127L683.769 78.3108C684.181 79.8227 726.13 230.71 810.96 397.252C889.219 550.896 1021.03 749.667 1204.51 823.982L1204.05 825.321Z" fill="#FFFFBF"/>
<path d="M1187.27 842.967C1110.3 814.164 1033.37 756.04 958.598 670.224C898.816 601.593 840.269 515.203 784.587 413.463C689.803 240.222 635.481 80.3205 634.944 78.732L636.215 78.2535C636.752 79.842 691.038 239.629 785.769 412.755C873.177 572.484 1013.85 776.538 1187.72 841.627L1187.27 842.967Z" fill="#FFFFBF"/>
<path d="M1148.56 893.512C1065.92 845.474 983.789 772.729 904.438 677.324C840.986 601.019 779.144 510.112 720.669 407.147C621.104 231.82 565.064 80.263 564.509 78.7511L565.762 78.2344C566.317 79.7463 622.34 231.208 721.851 406.42C813.664 568.101 962.358 783.619 1149.22 892.248L1148.56 893.512Z" fill="#FFFFBF"/>
<path d="M1062.34 963.443C979.51 917.128 897.778 841.647 819.393 739.122C756.711 657.133 696.015 557.747 639.008 443.721C541.932 249.619 488.506 78.0813 487.969 76.3589L489.24 75.8995C489.759 77.6029 543.167 249.045 640.19 443.051C729.711 622.072 875.72 857.436 1062.94 962.161L1062.34 963.443Z" fill="#FFFFBF"/>
<path d="M1011.02 997.835C936.021 947.769 859.91 868.306 784.838 761.61C724.787 676.291 665.256 573.46 607.873 455.969C510.206 255.954 451.91 80.4736 451.337 78.732L452.608 78.2535C453.181 79.9951 511.441 255.399 609.091 455.319C699.184 639.794 842.167 883.445 1011.76 996.61L1011.02 997.835Z" fill="#FFFFBF"/>
<path d="M923.488 1026.94C780.792 852.306 648.981 603.794 563.542 426.075C470.96 233.523 411.357 80.2822 410.766 78.7702L412.001 78.2152C412.592 79.7463 472.177 232.93 564.724 425.424C650.127 603.067 781.884 851.464 924.491 1025.99L923.488 1026.94Z" fill="#FFFFBF"/>
<path d="M847.27 1032C780.147 966.601 712.881 875.483 647.352 761.188C594.946 669.764 543.507 563.393 494.486 445.022C411.034 243.475 362.89 74.7703 362.406 73.0861L363.696 72.665C364.179 74.3492 412.305 242.978 495.739 444.429C572.727 630.339 696.373 882.985 848.183 1030.91L847.27 1032Z" fill="#FFFFBF"/>
<path d="M813.717 1031.33C740.185 954.869 668.747 857.187 601.392 741.036C547.5 648.119 496.097 543.24 448.579 429.29C367.67 235.303 325.596 80.2248 325.184 78.6937L326.473 78.2918C326.885 79.842 368.942 234.825 449.797 428.735C524.422 607.679 648.283 857.302 814.649 1030.29L813.717 1031.33Z" fill="#FFFFBF"/>
<path d="M746.756 1034.47C610.881 878.315 482.973 627.2 399.612 444.046C309.285 245.619 250.326 82.0046 249.735 80.3778L250.989 79.8611C251.58 81.4878 310.52 245.064 400.811 443.433C484.137 626.492 611.973 877.473 747.741 1033.49L746.756 1034.47Z" fill="#FFFFBF"/>
<path d="M688.03 1031.9C549.219 839.637 416.298 589.651 329.23 413.788C234.911 223.246 172.604 76.2631 171.978 74.8086L173.195 74.2153C173.822 75.6699 236.11 222.615 330.412 413.118C417.444 588.924 550.329 838.852 689.086 1031.02L688.03 1031.9Z" fill="#FFFFBF"/>
<path d="M617.667 1031.96C481.344 872.268 352.685 619.622 268.768 435.797C177.85 236.643 118.39 73.1435 117.799 71.5167L119.053 71C119.644 72.6268 179.085 236.088 269.985 435.185C353.866 618.914 482.454 871.426 618.651 1030.98L617.667 1031.96Z" fill="#FFFFBF"/>
<path d="M485.874 1031.94C381.349 908.191 273.279 655.583 201.018 465.462C122.723 259.513 68.4555 80.4927 67.9183 78.7128L69.1895 78.2726C69.7267 80.0525 123.994 259.035 202.253 464.945C274.479 654.951 382.477 907.406 486.859 1030.98L485.874 1031.94Z" fill="#FFFFBF"/>
<path d="M407.812 1036.03C317.682 905.434 231.223 663.582 174.556 483.681C113.18 288.814 72.5735 122.654 72.1617 121.009L73.4687 120.645C73.8626 122.291 114.469 288.412 175.827 483.241C232.458 663.027 318.864 904.726 408.886 1035.17L407.812 1036.03Z" fill="#FFFFBF"/>
<path d="M273.781 1035.9C172.174 794.662 68.1511 297.465 67.1127 292.47L68.4197 292.164C69.4581 297.159 173.446 794.202 275.016 1035.31L273.781 1035.9Z" fill="#FFFFBF"/>
<path d="M249.789 1035.96C142.489 833.398 65.7699 469.921 65 466.266L66.307 465.959C67.0769 469.596 143.761 832.881 250.953 1035.25L249.789 1035.96Z" fill="#FFFFBF"/>
<path d="M197.563 1038.2C127.217 891.674 70.0132 611.775 69.4581 608.961L70.7651 608.655C71.3381 611.469 128.488 891.176 198.762 1037.53L197.563 1038.2Z" fill="#FFFFBF"/>
<path d="M137.96 1050.04C97.2096 968.955 69.7087 774.949 69.4402 772.997L70.7651 772.786C71.0337 774.738 98.4987 968.515 139.141 1049.37L137.96 1050.04Z" fill="#FFFFBF"/>
<path d="M1399.94 123.631C1251.69 70.7703 744.786 111.631 739.684 112.052L739.576 110.617C744.679 110.195 1251.87 69.3158 1400.37 122.272L1399.94 123.631Z" fill="#FFFFBF"/>
<path d="M765.519 194.347L765.34 192.931C769.136 192.414 1147.95 140.989 1397.36 192.931L1397.11 194.347C1147.92 142.425 769.315 193.83 765.519 194.347Z" fill="#FFFFBF"/>
<path d="M796.243 280.106L795.974 278.69C798.785 278.097 1080.94 219.112 1392.17 239.284L1392.09 240.719C1081.03 220.548 799.054 279.513 796.243 280.106Z" fill="#FFFFBF"/>
<path d="M827.629 353.119L827.396 351.703C830.888 351.033 1179.55 286.135 1382.84 321.407L1382.62 322.823C1179.57 287.608 831.12 352.469 827.629 353.119Z" fill="#FFFFBF"/>
<path d="M845.283 387.243L844.996 385.846C847.807 385.214 1127.99 323.034 1373.76 359.435L1373.58 360.851C1128.04 324.488 848.076 386.612 845.283 387.243Z" fill="#FFFFBF"/>
<path d="M868.003 440.18L867.788 438.764C870.689 438.266 1159.98 388.736 1360.85 427.089L1360.62 428.505C1159.97 390.171 870.903 439.663 868.003 440.18Z" fill="#FFFFBF"/>
<path d="M1358.7 455.318C1203.04 432.027 882.452 454.266 879.229 454.496L879.139 453.06C882.362 452.83 1203.1 430.592 1358.9 453.902L1358.7 455.318Z" fill="#FFFFBF"/>
<path d="M931.957 504.963L931.796 503.547C934.284 503.203 1183.21 470.208 1344.85 491.126L1344.68 492.543C1183.21 471.643 934.445 504.638 931.957 504.963Z" fill="#FFFFBF"/>
<path d="M968.32 558.57L968.213 557.135C970.719 556.924 1220.45 536.35 1331.15 543.853L1331.06 545.288C1220.47 537.805 970.827 558.36 968.32 558.57Z" fill="#FFFFBF"/>
<path d="M1046.85 658.319L1046.63 656.903C1047.94 656.674 1178.46 633.554 1295.9 641.057L1295.82 642.492C1178.55 635.009 1048.15 658.09 1046.85 658.319Z" fill="#FFFFBF"/>
<path d="M1119.11 735.409L1118.84 734.012C1119.81 733.801 1215.94 712.367 1265.64 717.936L1265.49 719.371C1215.99 713.802 1120.08 735.199 1119.11 735.409Z" fill="#FFFFBF"/>
</g>
<g style="mix-blend-mode:multiply" opacity="0.3">
<path fill-rule="evenodd" clip-rule="evenodd" d="M1394.94 80.1099C1394.94 80.1099 1397.25 439.453 1180.41 773.552L1206.75 790.336C1206.75 790.336 1108.65 976.017 906.103 1033.09L952.063 1031.42C952.045 1031.44 1370.04 919.042 1394.94 80.1099Z" fill="url(#paint8_linear_1_293)"/>
</g>
<g style="mix-blend-mode:multiply" opacity="0.3">
<path fill-rule="evenodd" clip-rule="evenodd" d="M72.8241 113.315C72.8241 113.315 194.483 726.797 379.791 1067.36L445.93 1075.94C445.912 1075.94 205.978 732.002 72.8241 113.315Z" fill="url(#paint9_linear_1_293)"/>
</g>
</g>
</g>
<defs>
<filter id="filter0_d_1_293" x="48" y="47" width="1838" height="1015" filterUnits="userSpaceOnUse" color-interpolation-filters="sRGB">
<feFlood flood-opacity="0" result="BackgroundImageFix"/>
<feColorMatrix in="SourceAlpha" type="matrix" values="0 0 0 0 0 0 0 0 0 0 0 0 0 0 0 0 0 0 127 0" result="hardAlpha"/>
<feOffset dy="4"/>
<feGaussianBlur stdDeviation="13.5"/>
<feColorMatrix type="matrix" values="0 0 0 0 0.704167 0 0 0 0 0.41581 0 0 0 0 0.149635 0 0 0 0.25 0"/>
<feBlend mode="normal" in2="BackgroundImageFix" result="effect1_dropShadow_1_293"/>
<feBlend mode="normal" in="SourceGraphic" in2="effect1_dropShadow_1_293" result="shape"/>
</filter>
<linearGradient id="paint0_linear_1_293" x1="967" y1="70" x2="967" y2="1031" gradientUnits="userSpaceOnUse">
<stop stop-color="#FFB648"/>
<stop offset="1" stop-color="#FFB648"/>
</linearGradient>
<linearGradient id="paint1_linear_1_293" x1="963.457" y1="1031.43" x2="963.457" y2="74.5126" gradientUnits="userSpaceOnUse">
<stop offset="0.0171" stop-color="#FFC42C"/>
<stop offset="0.9665" stop-color="#FFD600"/>
</linearGradient>
<linearGradient id="paint2_linear_1_293" x1="963.457" y1="1031.43" x2="963.457" y2="74.5126" gradientUnits="userSpaceOnUse">
<stop offset="0.0171" stop-color="#FF8B2C"/>
<stop offset="0.0422" stop-color="#FF8D2A"/>
<stop offset="0.3782" stop-color="#FFA413"/>
<stop offset="0.6939" stop-color="#FFB105"/>
<stop offset="0.9665" stop-color="#FFB600"/>
</linearGradient>
<linearGradient id="paint3_linear_1_293" x1="1405.36" y1="1031.43" x2="1405.36" y2="74.5126" gradientUnits="userSpaceOnUse">
<stop offset="0.0171" stop-color="#FFA12C"/>
<stop offset="0.9665" stop-color="#FFC500"/>
</linearGradient>
<linearGradient id="paint4_linear_1_293" x1="346.409" y1="1163.01" x2="346.409" y2="74.5126" gradientUnits="userSpaceOnUse">
<stop offset="0.0171" stop-color="#FFA12C"/>
<stop offset="0.9665" stop-color="#FFB600"/>
</linearGradient>
<linearGradient id="paint5_linear_1_293" x1="1163.54" y1="1040" x2="1163.54" y2="78.4912" gradientUnits="userSpaceOnUse">
<stop offset="0.0171" stop-color="#FFAE2C"/>
<stop offset="0.9665" stop-color="#FFCD00"/>
</linearGradient>
<linearGradient id="paint6_linear_1_293" x1="975.018" y1="804.301" x2="975.018" y2="74.5126" gradientUnits="userSpaceOnUse">
<stop offset="0.0171" stop-color="#FFAE2C"/>
<stop offset="0.9665" stop-color="#FFCD00"/>
</linearGradient>
<linearGradient id="paint7_linear_1_293" x1="218.104" y1="1053.53" x2="218.104" y2="78.4912" gradientUnits="userSpaceOnUse">
<stop offset="0.0171" stop-color="#FFAE2C"/>
<stop offset="0.9665" stop-color="#FFCD00"/>
</linearGradient>
<linearGradient id="paint8_linear_1_293" x1="906.099" y1="556.607" x2="1394.94" y2="556.607" gradientUnits="userSpaceOnUse">
<stop offset="0.00558659" stop-color="#DB5098"/>
<stop offset="1" stop-color="#FFFED1"/>
</linearGradient>
<linearGradient id="paint9_linear_1_293" x1="72.8171" y1="594.627" x2="445.916" y2="594.627" gradientUnits="userSpaceOnUse">
<stop offset="0.00558659" stop-color="#DB5098"/>
<stop offset="1" stop-color="#FFFED1"/>
</linearGradient>
<clipPath id="clip0_1_293">
<path d="M75 70H1859V975C1859 1005.93 1833.93 1031 1803 1031H131C100.072 1031 75 1005.93 75 975V70Z" fill="white"/>
</clipPath>
</defs>
</svg>
