<svg width="57" height="61" viewBox="0 0 57 61" fill="none" xmlns="http://www.w3.org/2000/svg">
<g clip-path="url(#clip0_1_424)" filter="url(#filter0_d_1_424)">
<path d="M44.6029 56.2154H12.3247C6.46632 56.2154 1.71143 51.4406 1.71143 45.5576V19.9237C1.71143 14.0407 6.46632 9.26593 12.3247 9.26593H44.6029C50.4613 9.26593 55.2162 14.0407 55.2162 19.9237V45.5576C55.2162 51.4406 50.4613 56.2154 44.6029 56.2154Z" fill="#F9B842"/>
<path d="M44.6029 56.2154H12.3247C6.46632 56.2154 1.71143 51.4406 1.71143 45.5576V19.9237C1.71143 14.0407 6.46632 9.26593 12.3247 9.26593H44.6029C50.4613 9.26593 55.2162 14.0407 55.2162 19.9237V45.5576C55.2162 51.4406 50.4613 56.2154 44.6029 56.2154Z" fill="#FFD27B"/>
<path d="M45.9824 4.94742C51.0781 4.94742 55.2163 9.49407 55.2163 15.1163V46.0465C55.2163 51.6524 50.0882 56.2154 44.9763 56.2154H33.584V4.94742H45.9824Z" fill="url(#paint0_linear_1_424)"/>
<path d="M10.9453 4.94742C5.84963 4.94742 1.7114 9.49407 1.7114 15.1163V46.0465C1.7114 51.6524 6.83955 56.2154 11.9515 56.2154H23.3438V4.94742H10.9453Z" fill="url(#paint1_linear_1_424)"/>
<path d="M44.6029 46.8613H12.3247C6.46632 46.8613 1.71143 42.0865 1.71143 36.2036V10.5859C1.71143 4.70299 6.46632 -0.0718079 12.3247 -0.0718079H44.6029C50.4613 -0.0718079 55.2162 4.70299 55.2162 10.5859V36.2199C55.2162 42.0865 50.4613 46.8613 44.6029 46.8613Z" fill="#FFDE32"/>
<path d="M28.8438 33.376C29.108 33.376 29.3662 33.2976 29.5858 33.1506C29.8055 33.0037 29.9767 32.7948 30.0777 32.5504C30.1788 32.306 30.2053 32.0371 30.1538 31.7776C30.1022 31.5182 29.975 31.2799 29.7882 31.0928C29.6014 30.9058 29.3634 30.7784 29.1044 30.7268C28.8453 30.6752 28.5767 30.7017 28.3327 30.8029C28.0886 30.9041 27.88 31.0755 27.7333 31.2955C27.5865 31.5154 27.5082 31.774 27.5082 32.0385C27.5082 32.3933 27.6489 32.7335 27.8994 32.9843C28.1498 33.2351 28.4896 33.376 28.8438 33.376ZM35.5219 33.376C35.7861 33.376 36.0443 33.2976 36.2639 33.1506C36.4836 33.0037 36.6548 32.7948 36.7559 32.5504C36.857 32.306 36.8834 32.0371 36.8319 31.7776C36.7803 31.5182 36.6531 31.2799 36.4663 31.0928C36.2796 30.9058 36.0416 30.7784 35.7825 30.7268C35.5234 30.6752 35.2548 30.7017 35.0108 30.8029C34.7667 30.9041 34.5581 31.0755 34.4114 31.2955C34.2646 31.5154 34.1863 31.774 34.1863 32.0385C34.1863 32.3933 34.327 32.7335 34.5775 32.9843C34.828 33.2351 35.1677 33.376 35.5219 33.376ZM35.5219 28.0261C35.7861 28.0261 36.0443 27.9477 36.2639 27.8007C36.4836 27.6538 36.6548 27.4449 36.7559 27.2005C36.857 26.9561 36.8834 26.6872 36.8319 26.4277C36.7803 26.1683 36.6531 25.93 36.4663 25.7429C36.2796 25.5559 36.0416 25.4285 35.7825 25.3769C35.5234 25.3253 35.2548 25.3518 35.0108 25.453C34.7667 25.5542 34.5581 25.7257 34.4114 25.9456C34.2646 26.1656 34.1863 26.4241 34.1863 26.6887C34.1863 27.0434 34.327 27.3836 34.5775 27.6344C34.828 27.8852 35.1677 28.0261 35.5219 28.0261ZM28.8438 28.0261C29.108 28.0261 29.3662 27.9477 29.5858 27.8007C29.8055 27.6538 29.9767 27.4449 30.0777 27.2005C30.1788 26.9561 30.2053 26.6872 30.1538 26.4277C30.1022 26.1683 29.975 25.93 29.7882 25.7429C29.6014 25.5559 29.3634 25.4285 29.1044 25.3769C28.8453 25.3253 28.5767 25.3518 28.3327 25.453C28.0886 25.5542 27.88 25.7257 27.7333 25.9456C27.5865 26.1656 27.5082 26.4241 27.5082 26.6887C27.5082 27.0434 27.6489 27.3836 27.8994 27.6344C28.1498 27.8852 28.4896 28.0261 28.8438 28.0261ZM38.1932 11.9765H36.8575V10.639C36.8575 10.2843 36.7168 9.94413 36.4663 9.69331C36.2159 9.44249 35.8761 9.30157 35.5219 9.30157C35.1677 9.30157 34.828 9.44249 34.5775 9.69331C34.327 9.94413 34.1863 10.2843 34.1863 10.639V11.9765H23.5013V10.639C23.5013 10.2843 23.3606 9.94413 23.1101 9.69331C22.8596 9.44249 22.5199 9.30157 22.1657 9.30157C21.8114 9.30157 21.4717 9.44249 21.2212 9.69331C20.9708 9.94413 20.83 10.2843 20.83 10.639V11.9765H19.4944C18.4317 11.9765 17.4126 12.3992 16.6611 13.1517C15.9097 13.9042 15.4875 14.9248 15.4875 15.9889V34.7135C15.4875 35.7776 15.9097 36.7982 16.6611 37.5507C17.4126 38.3032 18.4317 38.7259 19.4944 38.7259H38.1932C39.2558 38.7259 40.275 38.3032 41.0264 37.5507C41.7779 36.7982 42.2 35.7776 42.2 34.7135V15.9889C42.2 14.9248 41.7779 13.9042 41.0264 13.1517C40.275 12.3992 39.2558 11.9765 38.1932 11.9765ZM39.5288 34.7135C39.5288 35.0682 39.3881 35.4084 39.1376 35.6592C38.8871 35.91 38.5474 36.051 38.1932 36.051H19.4944C19.1402 36.051 18.8005 35.91 18.55 35.6592C18.2995 35.4084 18.1588 35.0682 18.1588 34.7135V22.6763H39.5288V34.7135ZM39.5288 20.0013H18.1588V15.9889C18.1588 15.6342 18.2995 15.294 18.55 15.0432C18.8005 14.7924 19.1402 14.6515 19.4944 14.6515H20.83V15.9889C20.83 16.3436 20.9708 16.6838 21.2212 16.9347C21.4717 17.1855 21.8114 17.3264 22.1657 17.3264C22.5199 17.3264 22.8596 17.1855 23.1101 16.9347C23.3606 16.6838 23.5013 16.3436 23.5013 15.9889V14.6515H34.1863V15.9889C34.1863 16.3436 34.327 16.6838 34.5775 16.9347C34.828 17.1855 35.1677 17.3264 35.5219 17.3264C35.8761 17.3264 36.2159 17.1855 36.4663 16.9347C36.7168 16.6838 36.8575 16.3436 36.8575 15.9889V14.6515H38.1932C38.5474 14.6515 38.8871 14.7924 39.1376 15.0432C39.3881 15.294 39.5288 15.6342 39.5288 15.9889V20.0013ZM22.1657 28.0261C22.4298 28.0261 22.6881 27.9477 22.9077 27.8007C23.1273 27.6538 23.2985 27.4449 23.3996 27.2005C23.5007 26.9561 23.5272 26.6872 23.4756 26.4277C23.4241 26.1683 23.2969 25.93 23.1101 25.7429C22.9233 25.5559 22.6853 25.4285 22.4262 25.3769C22.1672 25.3253 21.8986 25.3518 21.6545 25.453C21.4105 25.5542 21.2019 25.7257 21.0551 25.9456C20.9084 26.1656 20.83 26.4241 20.83 26.6887C20.83 27.0434 20.9708 27.3836 21.2212 27.6344C21.4717 27.8852 21.8114 28.0261 22.1657 28.0261ZM22.1657 33.376C22.4298 33.376 22.6881 33.2976 22.9077 33.1506C23.1273 33.0037 23.2985 32.7948 23.3996 32.5504C23.5007 32.306 23.5272 32.0371 23.4756 31.7776C23.4241 31.5182 23.2969 31.2799 23.1101 31.0928C22.9233 30.9058 22.6853 30.7784 22.4262 30.7268C22.1672 30.6752 21.8986 30.7017 21.6545 30.8029C21.4105 30.9041 21.2019 31.0755 21.0551 31.2955C20.9084 31.5154 20.83 31.774 20.83 32.0385C20.83 32.3933 20.9708 32.7335 21.2212 32.9843C21.4717 33.2351 21.8114 33.376 22.1657 33.376Z" fill="white"/>
</g>
<defs>
<filter id="filter0_d_1_424" x="0" y="0" width="57" height="61" filterUnits="userSpaceOnUse" color-interpolation-filters="sRGB">
<feFlood flood-opacity="0" result="BackgroundImageFix"/>
<feColorMatrix in="SourceAlpha" type="matrix" values="0 0 0 0 0 0 0 0 0 0 0 0 0 0 0 0 0 0 127 0" result="hardAlpha"/>
<feOffset dy="3"/>
<feGaussianBlur stdDeviation="1"/>
<feColorMatrix type="matrix" values="0 0 0 0 0.870588 0 0 0 0 0.6 0 0 0 0 0.34902 0 0 0 1 0"/>
<feBlend mode="normal" in2="BackgroundImageFix" result="effect1_dropShadow_1_424"/>
<feBlend mode="normal" in="SourceGraphic" in2="effect1_dropShadow_1_424" result="shape"/>
</filter>
<linearGradient id="paint0_linear_1_424" x1="62.2829" y1="30.5824" x2="33.5874" y2="30.5824" gradientUnits="userSpaceOnUse">
<stop stop-color="#FFBE5C"/>
<stop offset="0.84375" stop-color="#FFA90B" stop-opacity="0"/>
</linearGradient>
<linearGradient id="paint1_linear_1_424" x1="-5.35521" y1="30.5824" x2="23.3403" y2="30.5824" gradientUnits="userSpaceOnUse">
<stop stop-color="#FFBE5C"/>
<stop offset="0.84375" stop-color="#FFA90B" stop-opacity="0"/>
</linearGradient>
<clipPath id="clip0_1_424">
<rect width="53" height="56" fill="white" transform="translate(2)"/>
</clipPath>
</defs>
</svg>
