<svg width="37" height="40" viewBox="0 0 37 40" fill="none" xmlns="http://www.w3.org/2000/svg">
<g clip-path="url(#clip0_1_1518)">
<path d="M17.9181 5.88573C20.897 5.88573 24.0278 16.1556 24.0278 16.1556C24.0278 16.1556 31.6523 13.8381 34.9792 15.1048C35.9532 15.4762 35.8804 17.7143 35.4377 19.0667C34.5016 21.9048 28.6259 27.6413 28.6259 27.6413C28.6259 27.6413 31.2855 37.9778 28.8757 39.7365C26.466 41.4952 17.9181 35.0349 17.9181 35.0349C17.9181 35.0349 9.37327 41.4952 6.96036 39.7365C4.55062 37.9778 7.33036 27.2064 7.33036 27.2064C7.33036 27.2064 1.09728 22.7365 0.189678 18.8159C-0.0190402 17.9206 -0.268869 15.3683 0.705148 14.9968C4.03199 13.7333 11.8051 16.1556 11.8051 16.1556C11.8051 16.1556 14.9391 5.88573 17.9181 5.88573Z" fill="#FF7F0E"/>
<path d="M17.9182 2.40636C20.8972 2.40636 24.028 12.6762 24.028 12.6762C24.028 12.6762 34.7263 12.4921 35.6466 15.3365C36.5668 18.181 27.8039 24.3429 27.8039 24.3429C27.8039 24.3429 31.2825 34.4984 28.8727 36.2572C26.463 38.0159 17.9151 31.5556 17.9151 31.5556C17.9151 31.5556 9.37026 38.0159 6.95736 36.2572C4.54761 34.4984 8.02625 24.3429 8.02625 24.3429C8.02625 24.3429 -0.73042 18.181 0.189836 15.3365C1.11009 12.4921 11.8085 12.6762 11.8085 12.6762C11.8085 12.6762 14.9392 2.40636 17.9182 2.40636Z" fill="url(#paint0_linear_1_1518)"/>
<path d="M28.8758 36.2571C28.6703 36.4032 28.4299 36.5301 28.1675 36.5714C27.9113 36.6254 27.6457 36.6254 27.3863 36.6159C26.8645 36.5809 26.3522 36.4635 25.8526 36.3143C24.8596 36.0032 23.914 35.5651 22.9906 35.0952C22.064 34.6286 21.1786 34.092 20.3026 33.5428C19.4298 32.9841 18.5822 32.4032 17.7442 31.7841H18.0921C17.254 32.4 16.4034 32.9841 15.5337 33.5428C14.6577 34.092 13.7722 34.6286 12.8457 35.0952C11.9222 35.5651 10.9767 36 9.9837 36.3111C9.48404 36.4571 8.97489 36.5778 8.44994 36.6127C8.18746 36.6222 7.92498 36.6254 7.66883 36.5682C7.40951 36.527 7.16917 36.4032 6.96045 36.2539C7.18498 36.3778 7.42532 36.4698 7.68148 36.4793C7.9313 36.5111 8.1843 36.4889 8.43412 36.4571C8.93378 36.3809 9.41763 36.2254 9.89199 36.0413C10.8407 35.6825 11.7483 35.2095 12.6338 34.7016C14.3952 33.6762 16.1061 32.5333 17.7442 31.3206L17.9181 31.1905L18.0921 31.3206C19.727 32.5365 21.4379 33.6762 23.2025 34.7047C24.0848 35.2127 24.9956 35.6857 25.9443 36.0444C26.4155 36.2286 26.9025 36.3873 27.4022 36.4603C27.652 36.492 27.905 36.5143 28.1548 36.4825C28.4078 36.473 28.6481 36.3809 28.8758 36.2571Z" fill="#FFF3C7"/>
<path d="M17.9178 6.00954C20.2675 6.00954 22.7405 14.1143 22.7405 14.1143C22.7405 14.1143 31.1809 13.9683 31.9051 16.2127C32.6325 18.4572 25.7195 23.3207 25.7195 23.3207C25.7195 23.3207 28.4644 31.3333 26.5638 32.7207C24.6632 34.108 17.9178 29.0095 17.9178 29.0095C17.9178 29.0095 11.1756 34.108 9.27185 32.7207C7.37126 31.3333 10.1162 23.3207 10.1162 23.3207C10.1162 23.3207 3.20322 18.454 3.93057 16.2127C4.65792 13.9683 13.0983 14.1143 13.0983 14.1143C13.0983 14.1143 15.5682 6.00954 17.9178 6.00954Z" fill="#CF6100"/>
<path d="M17.9178 5.42856C20.2675 5.42856 22.7405 13.5333 22.7405 13.5333C22.7405 13.5333 31.1809 13.3873 31.9082 15.6317C32.6356 17.8762 25.7226 22.7397 25.7226 22.7397C25.7226 22.7397 28.4676 30.7524 26.567 32.1397C24.6664 33.527 17.921 28.4286 17.921 28.4286C17.921 28.4286 11.1788 33.527 9.27499 32.1397C7.3744 30.7524 10.1194 22.7397 10.1194 22.7397C10.1194 22.7397 3.2032 17.8762 3.93055 15.6317C4.6579 13.3873 13.0983 13.5333 13.0983 13.5333C13.0983 13.5333 15.5682 5.42856 17.9178 5.42856Z" fill="url(#paint1_linear_1_1518)"/>
<path d="M17.9178 5.42856C20.2675 5.42856 22.7405 13.5333 22.7405 13.5333C22.7405 13.5333 31.1809 13.3873 31.9082 15.6317C32.6356 17.8762 25.7226 22.7397 25.7226 22.7397C25.7226 22.7397 28.4676 30.7524 26.567 32.1397C24.6664 33.527 17.921 28.4286 17.921 28.4286C17.921 28.4286 11.1788 33.527 9.27499 32.1397C7.3744 30.7524 10.1194 22.7397 10.1194 22.7397C10.1194 22.7397 3.2032 17.8762 3.93055 15.6317C4.6579 13.3873 13.0983 13.5333 13.0983 13.5333C13.0983 13.5333 15.5682 5.42856 17.9178 5.42856Z" fill="url(#paint2_linear_1_1518)"/>
<path d="M26.5642 32.1397C26.3966 32.2508 26.2068 32.346 26.0044 32.3714C25.802 32.4127 25.5965 32.4095 25.3909 32.3968C24.983 32.3651 24.5814 32.2667 24.1924 32.146C23.4144 31.8952 22.6744 31.5429 21.9502 31.1683C21.2261 30.7937 20.5303 30.4222 19.8441 29.9841C19.1578 29.5429 18.4874 29.2381 17.8296 28.6571H18.0036C17.3458 29.2381 16.6722 29.5429 15.9891 29.9841C15.3029 30.4222 14.6103 30.8222 13.883 31.1968C13.162 31.5714 12.4188 31.9079 11.6408 32.1619C11.2519 32.2825 10.8502 32.3746 10.4423 32.4064C10.2367 32.4191 10.0312 32.4159 9.82879 32.3778C9.62323 32.3524 9.43665 32.2571 9.26904 32.146C9.44297 32.2476 9.63272 32.327 9.83511 32.3397C10.0343 32.3683 10.2367 32.3524 10.436 32.3302C10.8344 32.2762 11.2202 32.1556 11.5966 32.0159C12.3524 31.7397 13.0734 31.3714 13.7786 30.9746C15.1827 30.1778 16.5394 29.2825 17.8296 28.3175L17.915 28.254L18.0004 28.3175C19.2938 29.2857 20.6473 30.1778 22.0514 30.9746C22.7535 31.3714 23.4777 31.7397 24.2335 32.0159C24.6098 32.1556 24.9956 32.2762 25.3941 32.3302C25.5933 32.3524 25.7957 32.3683 25.9949 32.3397C26.2005 32.3206 26.3871 32.2413 26.5642 32.1397Z" fill="#FFFC81"/>
<g style="mix-blend-mode:screen" opacity="0.65">
<path d="M31.9053 15.6317C31.178 13.3873 22.7375 13.5333 22.7375 13.5333C22.7375 13.5333 20.2677 5.42856 17.918 5.42856C15.5684 5.42856 13.0954 13.5333 13.0954 13.5333C13.0954 13.5333 4.65497 13.3873 3.92762 15.6317C3.68728 16.3714 4.28181 17.3968 5.17993 18.4381C8.80403 20.6889 13.0764 21.9905 17.6492 21.9905C22.7027 21.9905 27.3862 20.4 31.2349 17.6984C31.7883 16.9238 32.0887 16.1936 31.9053 15.6317Z" fill="url(#paint3_linear_1_1518)"/>
</g>
<!-- <g style="mix-blend-mode:screen">
<path d="M18.9302 12.1905C22.2836 12.1905 25.002 9.46154 25.002 6.09524C25.002 2.72893 22.2836 0 18.9302 0C15.5768 0 12.8584 2.72893 12.8584 6.09524C12.8584 9.46154 15.5768 12.1905 18.9302 12.1905Z" fill="url(#paint4_radial_1_1518)"/>
</g> -->
</g>
<defs>
<linearGradient id="paint0_linear_1_1518" x1="17.9187" y1="37.2063" x2="17.9187" y2="2.33556" gradientUnits="userSpaceOnUse">
<stop stop-color="#FF9302"/>
<stop offset="1" stop-color="#FCD60A"/>
</linearGradient>
<linearGradient id="paint1_linear_1_1518" x1="3.87682" y1="18.9038" x2="31.9597" y2="18.9038" gradientUnits="userSpaceOnUse">
<stop stop-color="#FDE329"/>
<stop offset="1" stop-color="#FFED78"/>
</linearGradient>
<linearGradient id="paint2_linear_1_1518" x1="3.87682" y1="18.9038" x2="31.9597" y2="18.9038" gradientUnits="userSpaceOnUse">
<stop stop-color="#FDE329"/>
<stop offset="1" stop-color="#FFED78"/>
</linearGradient>
<linearGradient id="paint3_linear_1_1518" x1="3.87721" y1="13.709" x2="31.9599" y2="13.709" gradientUnits="userSpaceOnUse">
<stop stop-color="white"/>
<stop offset="1"/>
</linearGradient>
<radialGradient id="paint4_radial_1_1518" cx="0" cy="0" r="1" gradientUnits="userSpaceOnUse" gradientTransform="translate(18.9313 6.09467) scale(6.07123 6.09467)">
<stop stop-color="white"/>
<stop offset="0.1095" stop-color="#CBCBCB"/>
<stop offset="0.2511" stop-color="#8E8E8E"/>
<stop offset="0.3874" stop-color="#5B5B5B"/>
<stop offset="0.5145" stop-color="#343434"/>
<stop offset="0.6305" stop-color="#171717"/>
<stop offset="0.7314" stop-color="#060606"/>
<stop offset="0.8062"/>
</radialGradient>
<clipPath id="clip0_1_1518">
<rect width="37" height="40" fill="white"/>
</clipPath>
</defs>
</svg>
