<svg width="57" height="61" viewBox="0 0 57 61" fill="none" xmlns="http://www.w3.org/2000/svg">
<g clip-path="url(#clip0_1_1471)" filter="url(#filter0_d_1_1471)">
<path d="M44.6029 56.2154H12.3247C6.46632 56.2154 1.71143 51.4406 1.71143 45.5576V19.9237C1.71143 14.0407 6.46632 9.26593 12.3247 9.26593H44.6029C50.4613 9.26593 55.2162 14.0407 55.2162 19.9237V45.5576C55.2162 51.4406 50.4613 56.2154 44.6029 56.2154Z" fill="#F9B842"/>
<path d="M44.6029 56.2154H12.3247C6.46632 56.2154 1.71143 51.4406 1.71143 45.5576V19.9237C1.71143 14.0407 6.46632 9.26593 12.3247 9.26593H44.6029C50.4613 9.26593 55.2162 14.0407 55.2162 19.9237V45.5576C55.2162 51.4406 50.4613 56.2154 44.6029 56.2154Z" fill="#FFD27B"/>
<path d="M45.9824 4.94742C51.0781 4.94742 55.2163 9.49407 55.2163 15.1163V46.0465C55.2163 51.6524 50.0882 56.2154 44.9763 56.2154H33.584V4.94742H45.9824Z" fill="url(#paint0_linear_1_1471)"/>
<path d="M10.9453 4.94742C5.84963 4.94742 1.7114 9.49407 1.7114 15.1163V46.0465C1.7114 51.6524 6.83955 56.2154 11.9515 56.2154H23.3438V4.94742H10.9453Z" fill="url(#paint1_linear_1_1471)"/>
<path d="M44.6029 46.8613H12.3247C6.46632 46.8613 1.71143 42.0865 1.71143 36.2036V10.5859C1.71143 4.70299 6.46632 -0.0718079 12.3247 -0.0718079H44.6029C50.4613 -0.0718079 55.2162 4.70299 55.2162 10.5859V36.2199C55.2162 42.0865 50.4613 46.8613 44.6029 46.8613Z" fill="#FFDE32"/>
<path d="M27.3332 32.2432C27.2558 32.1676 26.9245 31.8822 26.6521 31.6164C24.9385 30.0581 22.1336 25.9929 21.2775 23.8652C21.1399 23.5421 20.8488 22.7252 20.8301 22.2887C20.8301 21.8704 20.9262 21.4717 21.1212 21.0913C21.3937 20.617 21.8224 20.2365 22.3286 20.0281C22.6799 19.8939 23.7311 19.6854 23.7498 19.6854C24.8997 19.4769 26.7683 19.3623 28.8331 19.3623C30.8005 19.3623 32.5929 19.4769 33.7603 19.6476C33.779 19.6672 35.0852 19.8756 35.5326 20.1036C36.35 20.5219 36.8576 21.3388 36.8576 22.2131V22.2887C36.8375 22.8581 36.33 24.0555 36.3113 24.0555C35.4538 26.0685 32.7866 30.0399 31.0142 31.636C31.0142 31.636 30.5588 32.0855 30.2743 32.2809C29.8656 32.5858 29.3594 32.737 28.8532 32.737C28.2882 32.737 27.762 32.5663 27.3332 32.2432Z" fill="white"/>
</g>
<defs>
<filter id="filter0_d_1_1471" x="0" y="0" width="57" height="61" filterUnits="userSpaceOnUse" color-interpolation-filters="sRGB">
<feFlood flood-opacity="0" result="BackgroundImageFix"/>
<feColorMatrix in="SourceAlpha" type="matrix" values="0 0 0 0 0 0 0 0 0 0 0 0 0 0 0 0 0 0 127 0" result="hardAlpha"/>
<feOffset dy="3"/>
<feGaussianBlur stdDeviation="1"/>
<feColorMatrix type="matrix" values="0 0 0 0 0.870588 0 0 0 0 0.6 0 0 0 0 0.34902 0 0 0 1 0"/>
<feBlend mode="normal" in2="BackgroundImageFix" result="effect1_dropShadow_1_1471"/>
<feBlend mode="normal" in="SourceGraphic" in2="effect1_dropShadow_1_1471" result="shape"/>
</filter>
<linearGradient id="paint0_linear_1_1471" x1="62.2829" y1="30.5824" x2="33.5874" y2="30.5824" gradientUnits="userSpaceOnUse">
<stop stop-color="#FFBE5C"/>
<stop offset="0.84375" stop-color="#FFA90B" stop-opacity="0"/>
</linearGradient>
<linearGradient id="paint1_linear_1_1471" x1="-5.35521" y1="30.5824" x2="23.3403" y2="30.5824" gradientUnits="userSpaceOnUse">
<stop stop-color="#FFBE5C"/>
<stop offset="0.84375" stop-color="#FFA90B" stop-opacity="0"/>
</linearGradient>
<clipPath id="clip0_1_1471">
<rect width="53" height="56" fill="white" transform="translate(2)"/>
</clipPath>
</defs>
</svg>
