<svg width="539" height="657" viewBox="0 0 539 657" fill="none" xmlns="http://www.w3.org/2000/svg">
<path d="M43.5713 657C19.5227 657 0 638.877 0 616.623L9.91821e-05 53.3774C9.91821e-05 31.0916 19.5566 13 43.5714 13H495.429C519.477 13 539 31.1229 539 53.3774L539 616.623C539 638.908 519.444 657 495.429 657H43.5713Z" fill="#FFCA7B"/>
<path d="M43.5716 641C19.5229 641 0.000244141 622.877 0.000244141 600.621V40.3789C0.000244141 18.0923 19.5567 0 43.5716 0H495.429C519.478 0 539 18.1236 539 40.3789V600.621C539 622.908 519.444 641 495.429 641H43.5716Z" fill="#FDE8B3"/>
<path d="M496.762 629H42.2385C25.5226 629 12.0002 616.487 12.0002 601.088L12.0002 39.8939C12.0002 24.4639 25.5565 11.9818 42.2385 11.9818H496.762C513.478 11.9818 527 24.4952 527 39.8939V601.088C527 616.518 513.478 629 496.762 629Z" fill="#FFF6D4"/>
<path d="M496.762 629H42.2385C25.5226 629 12.0002 616.485 12.0002 601.085V39.9153C12.0002 24.4835 25.5565 12 42.2385 12H496.762C513.478 12 527 24.5148 527 39.9153V601.085C527 616.517 513.478 629 496.762 629Z" stroke="#FFB489" stroke-width="3" stroke-miterlimit="2.61313" stroke-linecap="round" stroke-dasharray="10 10"/>
</svg>
