<svg width="1795" height="1093" viewBox="0 0 1795 1093" fill="none" xmlns="http://www.w3.org/2000/svg">
<path opacity="0.4" d="M1793.66 3.94562H3.24072V960.866H1793.66V3.94562Z" fill="url(#paint0_linear_1_667)"/>
<path opacity="0.4" fill-rule="evenodd" clip-rule="evenodd" d="M667.307 3.94562C667.307 3.94562 765.512 834.571 1793.68 960.866H3.24072V3.94562H667.307Z" fill="url(#paint1_linear_1_667)"/>
<path opacity="0.4" fill-rule="evenodd" clip-rule="evenodd" d="M1340.11 7.90724C1340.11 7.90724 1323.66 826.227 887.063 960.847H1793.68V3.92645L1340.11 7.90724Z" fill="url(#paint2_linear_1_667)"/>
<path fill-rule="evenodd" clip-rule="evenodd" d="M3.24072 3.94562C3.24072 3.94562 49.1471 664.929 402.522 960.904C402.522 960.904 755.897 1256.88 402.522 960.904L3.24072 960.866V3.94562Z" fill="url(#paint3_linear_1_667)"/>
<path fill-rule="evenodd" clip-rule="evenodd" d="M1340.11 7.90735C1340.11 7.90735 1344.48 804.008 871.683 969.421H856.966C856.966 969.421 1292.65 900.867 1340.11 7.90735Z" fill="url(#paint4_linear_1_667)"/>
<path fill-rule="evenodd" clip-rule="evenodd" d="M667.307 3.94562C667.307 3.94562 742.505 493.104 1148.5 733.732L1152.74 725.272C1152.74 725.272 800.586 567.763 667.307 3.94562Z" fill="url(#paint5_linear_1_667)"/>
<path fill-rule="evenodd" clip-rule="evenodd" d="M3.56299 7.90735C3.56299 7.90735 86.2266 529.506 302.652 979.124L290.531 982.952C290.531 982.952 61.3219 460.397 3.56299 7.90735Z" fill="url(#paint6_linear_1_667)"/>
<g opacity="0.2">
<path d="M964.517 963.182L963.979 961.861C964.875 961.44 1053.91 918.513 1148.18 780.199C1235.19 652.546 1344.55 415.192 1371.46 9.49579L1372.8 9.59148C1360.92 188.899 1332.07 350.619 1287.06 490.214C1251.04 601.925 1204.67 699.799 1149.2 781.156C1054.72 919.719 965.394 962.761 964.517 963.182Z" fill="#FFFFBF"/>
<path d="M1020.45 965.631L1019.72 964.426C1020.68 963.756 1116.77 895.336 1210.4 744.066C1296.8 604.451 1398.69 363.69 1393.48 9.55326L1394.83 9.53412C1397.14 166.086 1378.89 313.758 1340.61 448.454C1309.98 556.223 1266.54 655.972 1211.47 744.927C1117.69 896.427 1021.42 964.962 1020.45 965.631Z" fill="#FFFFBF"/>
<path d="M1145.87 962.952L1144.79 962.091C1145.47 961.115 1214.53 861.901 1287.17 694.727C1354.22 540.452 1438.14 295.079 1457.15 2.26141L1458.49 2.35711C1450.1 131.752 1428.43 262.773 1394.11 391.785C1366.66 494.98 1331.09 597.121 1288.39 695.378C1215.66 862.667 1146.57 961.957 1145.87 962.952Z" fill="#FFFFBF"/>
<path d="M1238.7 960.79L1237.54 960.081C1376.22 694.957 1439.32 449.545 1467.8 290.371C1498.69 117.896 1496.74 6.68251 1496.72 5.59162L1498.06 5.55334C1498.08 6.66337 1500.03 117.972 1469.13 290.601C1450.97 391.977 1425.23 494.348 1392.57 594.863C1351.75 720.507 1299.97 843.624 1238.7 960.79Z" fill="#FFFFBF"/>
<path d="M1290.91 960.617L1289.76 959.852C1425.62 726.325 1479.82 479.325 1501.36 313.222C1524.7 133.245 1515.79 6.87388 1515.7 5.61074L1517.04 5.49591C1517.13 6.75905 1526.05 133.245 1502.7 313.375C1488.98 419.173 1466.98 522.482 1437.31 620.47C1400.22 742.956 1350.96 857.404 1290.91 960.617Z" fill="#FFFFBF"/>
<path d="M1340.63 965.345L1339.41 964.713C1450.87 717.655 1506.76 470.023 1534.05 305.778C1563.61 127.81 1566.85 6.73993 1566.89 5.55334L1568.23 5.59162C1568.19 6.79734 1564.95 127.982 1535.39 306.026C1508.09 470.368 1452.16 718.153 1340.63 965.345Z" fill="#FFFFBF"/>
<path d="M1382.26 962.876L1381.13 962.091C1509.93 750.707 1564.74 501.908 1588.01 330.39C1613.24 144.556 1607.96 6.95042 1607.89 5.59159L1609.23 5.53418C1609.28 6.91215 1614.58 144.632 1589.34 330.6C1574.51 439.823 1552.19 544.089 1523.02 640.47C1486.55 760.966 1439.19 869.442 1382.26 962.876Z" fill="#FFFFBF"/>
<path d="M1428.58 969.325L1427.47 968.541C1557.29 759.549 1623.21 509.468 1655.64 336.495C1690.78 149.053 1695.28 9.28529 1695.31 7.88818L1696.66 7.92646C1696.62 9.32356 1692.11 149.206 1656.94 336.763C1636.28 446.904 1609.26 551.706 1576.59 648.24C1535.77 768.908 1485.96 876.944 1428.58 969.325Z" fill="#FFFFBF"/>
<path d="M1516.95 965.383L1515.79 964.675C1621.98 765.023 1686.02 515.496 1721.04 341.337C1758.98 152.613 1771.98 9.26616 1772.1 7.84991L1773.45 7.98388C1773.32 9.41926 1760.32 152.823 1722.35 341.624C1687.31 515.879 1623.23 765.559 1516.95 965.383Z" fill="#FFFFBF"/>
<path d="M1631.79 965.306L1630.55 964.771C1691.57 805.386 1732.48 553.065 1756.04 369.47C1781.57 170.507 1792.82 7.16094 1792.93 5.53418L1794.27 5.62987C1794.16 7.25664 1782.92 170.641 1757.37 369.642C1733.79 553.314 1692.86 805.769 1631.79 965.306Z" fill="#FFFFBF"/>
<path d="M1672.14 965.306L1670.91 964.751C1722.28 834.591 1752.71 628.642 1769.2 478.789C1787.07 316.399 1792.85 183.081 1792.93 181.761L1794.27 181.818C1794.21 183.139 1788.41 316.495 1770.55 478.942C1754.04 628.891 1723.56 834.993 1672.14 965.306Z" fill="#FFFFBF"/>
<path d="M1752.52 958.168L1751.24 957.747C1796.22 804.869 1792.96 432.723 1792.91 428.972L1794.25 428.952C1794.3 432.704 1797.58 805.079 1752.52 958.168Z" fill="#FFFFBF"/>
<path d="M1139.05 754.745C1057.85 721.846 979.896 662.115 907.349 577.218C849.339 509.314 794.642 425.239 744.779 327.346C659.877 160.67 617.892 9.64883 617.48 8.13689L618.769 7.73499C619.181 9.24692 661.13 160.134 745.96 326.677C824.219 480.32 956.03 679.091 1139.51 753.406L1139.05 754.745Z" fill="#FFFFBF"/>
<path d="M1122.27 772.391C1045.3 743.588 968.366 685.464 893.598 599.648C833.816 531.018 775.269 444.627 719.587 342.887C624.803 169.646 570.481 9.74468 569.944 8.15619L571.215 7.67773C571.752 9.26622 626.038 169.053 720.769 342.179C808.177 501.908 948.851 705.962 1122.72 771.051L1122.27 772.391Z" fill="#FFFFBF"/>
<path d="M1083.56 822.936C1000.92 774.898 918.789 702.153 839.438 606.748C775.986 530.443 714.144 439.536 655.669 336.571C556.104 161.244 500.064 9.68724 499.509 8.17531L500.762 7.65857C501.317 9.1705 557.34 160.632 656.851 335.844C748.664 497.525 897.358 713.043 1084.22 821.673L1083.56 822.936Z" fill="#FFFFBF"/>
<path d="M997.335 892.868C914.51 846.553 832.778 771.071 754.393 668.546C691.711 586.557 631.015 487.172 574.008 373.145C476.932 179.043 423.506 7.50551 422.969 5.78305L424.24 5.32373C424.759 7.02705 478.167 178.469 575.19 372.475C664.711 551.496 810.72 786.86 997.944 891.585L997.335 892.868Z" fill="#FFFFBF"/>
<path d="M946.022 927.259C871.021 877.193 794.91 797.73 719.838 691.034C659.787 605.715 600.256 502.884 542.873 385.393C445.206 185.378 386.91 9.89779 386.337 8.15619L387.608 7.67773C388.181 9.41933 446.441 184.823 544.091 384.743C634.184 569.218 777.167 812.869 946.756 926.034L946.022 927.259Z" fill="#FFFFBF"/>
<path d="M858.488 956.369C715.792 781.731 583.981 533.218 498.542 355.499C405.96 162.948 346.356 9.70635 345.766 8.19442L347.001 7.6394C347.592 9.17048 407.177 162.354 499.724 354.848C585.127 532.491 716.884 780.889 859.491 955.412L858.488 956.369Z" fill="#FFFFBF"/>
<path d="M782.27 961.421C715.147 896.025 647.881 804.907 582.352 690.613C529.946 599.189 478.507 492.817 429.486 374.446C346.034 172.9 297.89 4.19446 297.406 2.51028L298.696 2.08923C299.179 3.77341 347.305 172.402 430.739 373.853C507.727 559.763 631.373 812.41 783.183 960.33L782.27 961.421Z" fill="#FFFFBF"/>
<path d="M748.717 960.752C675.185 884.294 603.747 786.611 536.392 670.46C482.5 577.543 431.097 472.665 383.579 358.715C302.67 164.728 260.595 9.64898 260.184 8.11791L261.473 7.716C261.884 9.26621 303.941 164.249 384.797 358.159C459.421 537.104 583.283 786.726 749.648 959.718L748.717 960.752Z" fill="#FFFFBF"/>
<path d="M681.756 963.89C545.881 807.74 417.973 556.625 334.611 373.47C244.285 175.043 185.326 11.4288 184.735 9.80202L185.989 9.28528C186.579 10.912 245.52 174.488 335.811 372.858C419.137 555.917 546.973 806.898 682.741 962.914L681.756 963.89Z" fill="#FFFFBF"/>
<path d="M623.03 961.326C484.219 769.061 351.298 519.075 264.23 343.212C169.911 152.67 107.604 5.68734 106.978 4.23282L108.195 3.63953C108.822 5.09405 171.11 152.039 265.412 342.543C352.444 518.348 485.329 768.276 624.086 960.445L623.03 961.326Z" fill="#FFFFBF"/>
<path d="M552.667 961.383C416.344 801.692 287.684 549.046 203.767 365.221C112.85 166.067 53.3902 2.5677 52.7993 0.940931L54.0526 0.424194C54.6434 2.05096 114.085 165.512 204.985 364.609C288.866 548.338 417.454 800.85 553.651 960.407L552.667 961.383Z" fill="#FFFFBF"/>
<path d="M420.874 961.364C316.349 837.615 208.28 585.007 136.018 394.886C57.7232 188.938 3.45558 9.91689 2.91846 8.13702L4.18965 7.69684C4.72678 9.47671 58.9944 188.459 137.254 394.369C209.479 584.375 317.477 836.83 421.859 960.407L420.874 961.364Z" fill="#FFFFBF"/>
<path d="M342.812 965.459C252.682 834.858 166.222 593.007 109.556 413.106C48.1801 218.238 7.57342 52.0787 7.16162 50.4328L8.46863 50.0692C8.86252 51.7151 49.4692 217.836 110.827 412.665C167.458 592.451 253.864 834.15 343.886 964.598L342.812 965.459Z" fill="#FFFFBF"/>
<path d="M208.781 965.326C107.175 724.086 3.15124 226.889 2.11279 221.894L3.4198 221.588C4.45824 226.583 108.446 723.627 210.016 964.732L208.781 965.326Z" fill="#FFFFBF"/>
<path d="M184.789 965.383C77.4893 762.822 0.76988 399.345 0 395.69L1.30701 395.384C2.07689 399.02 78.7605 762.305 185.953 964.675L184.789 965.383Z" fill="#FFFFBF"/>
<path d="M132.562 967.622C62.2169 821.098 5.01304 541.199 4.45801 538.386L5.76501 538.079C6.33795 540.893 63.4881 820.601 133.762 966.952L132.562 967.622Z" fill="#FFFFBF"/>
<path d="M72.9595 979.469C32.2096 898.379 4.70875 704.373 4.44019 702.421L5.7651 702.21C6.03366 704.163 33.4987 897.939 74.1412 978.799L72.9595 979.469Z" fill="#FFFFBF"/>
<path d="M1334.94 53.0548C1186.69 0.194523 679.786 41.055 674.684 41.4761L674.576 40.0407C679.679 39.6197 1186.87 -1.25999 1335.37 51.696L1334.94 53.0548Z" fill="#FFFFBF"/>
<path d="M700.519 123.771L700.34 122.355C704.136 121.838 1082.95 70.4133 1332.36 122.355L1332.11 123.771C1082.92 71.8487 704.315 123.254 700.519 123.771Z" fill="#FFFFBF"/>
<path d="M731.243 209.531L730.974 208.114C733.785 207.521 1015.94 148.536 1327.17 168.708L1327.09 170.144C1016.03 149.972 734.054 208.937 731.243 209.531Z" fill="#FFFFBF"/>
<path d="M762.629 282.543L762.396 281.127C765.888 280.457 1114.55 215.559 1317.84 250.831L1317.62 252.247C1114.57 217.033 766.121 281.893 762.629 282.543Z" fill="#FFFFBF"/>
<path d="M780.283 316.667L779.996 315.27C782.807 314.639 1062.99 252.458 1308.76 288.859L1308.58 290.275C1063.04 253.913 783.076 316.036 780.283 316.667Z" fill="#FFFFBF"/>
<path d="M803.003 369.604L802.788 368.188C805.689 367.69 1094.98 318.16 1295.85 356.513L1295.62 357.93C1094.97 319.595 805.903 369.087 803.003 369.604Z" fill="#FFFFBF"/>
<path d="M1293.7 384.743C1138.04 361.451 817.452 383.69 814.229 383.92L814.139 382.484C817.362 382.255 1138.1 360.016 1293.9 383.326L1293.7 384.743Z" fill="#FFFFBF"/>
<path d="M866.957 434.388L866.796 432.971C869.284 432.627 1118.21 399.632 1279.85 420.551L1279.68 421.967C1118.21 401.068 869.445 434.062 866.957 434.388Z" fill="#FFFFBF"/>
<path d="M903.32 487.994L903.213 486.559C905.719 486.348 1155.45 465.774 1266.15 473.277L1266.06 474.712C1155.46 467.229 905.827 487.784 903.32 487.994Z" fill="#FFFFBF"/>
<path d="M981.848 587.744L981.633 586.327C982.94 586.098 1113.46 562.979 1230.9 570.481L1230.82 571.916C1113.55 564.433 983.155 587.514 981.848 587.744Z" fill="#FFFFBF"/>
<path d="M1054.11 664.833L1053.84 663.436C1054.81 663.226 1150.94 641.791 1200.64 647.36L1200.49 648.795C1150.99 643.226 1055.08 664.623 1054.11 664.833Z" fill="#FFFFBF"/>
</g>
<g style="mix-blend-mode:multiply" opacity="0.3">
<path fill-rule="evenodd" clip-rule="evenodd" d="M1329.94 9.53412C1329.94 9.53412 1332.25 368.877 1115.41 702.976L1141.75 719.76C1141.75 719.76 1043.65 905.441 841.103 962.512L887.063 960.847C887.045 960.866 1305.04 848.466 1329.94 9.53412Z" fill="url(#paint7_linear_1_667)"/>
</g>
<g style="mix-blend-mode:multiply" opacity="0.3">
<path fill-rule="evenodd" clip-rule="evenodd" d="M7.82422 42.7392C7.82422 42.7392 129.483 656.221 314.792 996.789L380.93 1005.36C380.912 1005.36 140.978 661.427 7.82422 42.7392Z" fill="url(#paint8_linear_1_667)"/>
</g>
<defs>
<linearGradient id="paint0_linear_1_667" x1="898.457" y1="960.857" x2="898.457" y2="3.93683" gradientUnits="userSpaceOnUse">
<stop offset="0.0171" stop-color="#FFC42C"/>
<stop offset="0.9665" stop-color="#FFD600"/>
</linearGradient>
<linearGradient id="paint1_linear_1_667" x1="898.458" y1="960.857" x2="898.458" y2="3.93683" gradientUnits="userSpaceOnUse">
<stop offset="0.0171" stop-color="#FF8B2C"/>
<stop offset="0.0422" stop-color="#FF8D2A"/>
<stop offset="0.3782" stop-color="#FFA413"/>
<stop offset="0.6939" stop-color="#FFB105"/>
<stop offset="0.9665" stop-color="#FFB600"/>
</linearGradient>
<linearGradient id="paint2_linear_1_667" x1="1340.36" y1="960.857" x2="1340.36" y2="3.93683" gradientUnits="userSpaceOnUse">
<stop offset="0.0171" stop-color="#FFA12C"/>
<stop offset="0.9665" stop-color="#FFC500"/>
</linearGradient>
<linearGradient id="paint3_linear_1_667" x1="281.409" y1="1092.43" x2="281.409" y2="3.93679" gradientUnits="userSpaceOnUse">
<stop offset="0.0171" stop-color="#FFA12C"/>
<stop offset="0.9665" stop-color="#FFB600"/>
</linearGradient>
<linearGradient id="paint4_linear_1_667" x1="1098.54" y1="969.42" x2="1098.54" y2="7.91537" gradientUnits="userSpaceOnUse">
<stop offset="0.0171" stop-color="#FFAE2C"/>
<stop offset="0.9665" stop-color="#FFCD00"/>
</linearGradient>
<linearGradient id="paint5_linear_1_667" x1="910.018" y1="733.725" x2="910.018" y2="3.93683" gradientUnits="userSpaceOnUse">
<stop offset="0.0171" stop-color="#FFAE2C"/>
<stop offset="0.9665" stop-color="#FFCD00"/>
</linearGradient>
<linearGradient id="paint6_linear_1_667" x1="153.104" y1="982.956" x2="153.104" y2="7.91537" gradientUnits="userSpaceOnUse">
<stop offset="0.0171" stop-color="#FFAE2C"/>
<stop offset="0.9665" stop-color="#FFCD00"/>
</linearGradient>
<linearGradient id="paint7_linear_1_667" x1="841.099" y1="486.031" x2="1329.94" y2="486.031" gradientUnits="userSpaceOnUse">
<stop offset="0.00558659" stop-color="#DB5098"/>
<stop offset="1" stop-color="#FFFED1"/>
</linearGradient>
<linearGradient id="paint8_linear_1_667" x1="7.81724" y1="524.052" x2="380.916" y2="524.052" gradientUnits="userSpaceOnUse">
<stop offset="0.00558659" stop-color="#DB5098"/>
<stop offset="1" stop-color="#FFFED1"/>
</linearGradient>
</defs>
</svg>
