<svg width="161" height="40" viewBox="0 0 161 40" fill="none" xmlns="http://www.w3.org/2000/svg">
<path d="M154.908 40H5.09247C2.28149 40 0 36.6498 0 32.5222V14.5366C0 10.4089 2.28149 7.05878 5.09247 7.05878H154.908C157.719 7.05878 160 10.4089 160 14.5366V32.5222C159.992 36.6498 157.719 40 154.908 40Z" fill="#BD000B"/>
<path d="M155.591 4.11765C158.024 4.11765 160 7.29984 160 11.2348V32.8828C160 36.8064 157.551 40 155.11 40H115.218V4.11765H155.591Z" fill="url(#paint0_linear_1_646)"/>
<path d="M4.40927 4.11765C1.97596 4.11765 -0.000141144 7.29984 -0.000141144 11.2348V32.8828C-0.000141144 36.8064 2.44867 40 4.88973 40H44.7825V4.11765H4.40927Z" fill="url(#paint1_linear_1_646)"/>
<path d="M154.915 35.805H5.09271C2.2816 35.805 0 32.1624 0 27.6743V8.13073C0 3.64266 2.2816 0 5.09271 0H154.915C157.726 0 160.008 3.64266 160.008 8.13073V27.6867C160 32.1624 157.726 35.805 154.915 35.805Z" fill="#FF000A"/>
<defs>
<linearGradient id="paint0_linear_1_646" x1="160" y1="22.0568" x2="109.13" y2="22.2186" gradientUnits="userSpaceOnUse">
<stop offset="0.28125" stop-color="#93000A"/>
<stop offset="1" stop-color="#D23333" stop-opacity="0"/>
</linearGradient>
<linearGradient id="paint1_linear_1_646" x1="-0.00014241" y1="22.0568" x2="50.8699" y2="22.2186" gradientUnits="userSpaceOnUse">
<stop offset="0.28125" stop-color="#93000A"/>
<stop offset="1" stop-color="#D23333" stop-opacity="0"/>
</linearGradient>
</defs>
</svg>
