<svg width="1795" height="1093" viewBox="0 0 1795 1093" fill="none" xmlns="http://www.w3.org/2000/svg">
<path opacity="0.4" d="M1793.66 3.52142H3.24072V960.442H1793.66V3.52142Z" fill="url(#paint0_linear_1_1055)"/>
<path opacity="0.4" fill-rule="evenodd" clip-rule="evenodd" d="M667.307 3.52142C667.307 3.52142 765.512 834.147 1793.68 960.442H3.24072V3.52142H667.307Z" fill="url(#paint1_linear_1_1055)"/>
<path opacity="0.4" fill-rule="evenodd" clip-rule="evenodd" d="M1340.11 7.48305C1340.11 7.48305 1323.66 825.803 887.063 960.423H1793.68V3.50226L1340.11 7.48305Z" fill="url(#paint2_linear_1_1055)"/>
<path fill-rule="evenodd" clip-rule="evenodd" d="M3.24072 3.52142C3.24072 3.52142 49.1471 664.505 402.522 960.48C402.522 960.48 755.897 1256.46 402.522 960.48L3.24072 960.442V3.52142Z" fill="url(#paint3_linear_1_1055)"/>
<path fill-rule="evenodd" clip-rule="evenodd" d="M1340.11 7.48315C1340.11 7.48315 1344.48 803.583 871.683 968.997H856.966C856.966 968.997 1292.65 900.443 1340.11 7.48315Z" fill="url(#paint4_linear_1_1055)"/>
<path fill-rule="evenodd" clip-rule="evenodd" d="M667.307 3.52142C667.307 3.52142 742.505 492.68 1148.5 733.307L1152.74 724.848C1152.74 724.848 800.586 567.339 667.307 3.52142Z" fill="url(#paint5_linear_1_1055)"/>
<path fill-rule="evenodd" clip-rule="evenodd" d="M3.56299 7.48315C3.56299 7.48315 86.2266 529.081 302.652 978.7L290.531 982.528C290.531 982.528 61.3219 459.973 3.56299 7.48315Z" fill="url(#paint6_linear_1_1055)"/>
<g opacity="0.2">
<path d="M964.517 962.758L963.979 961.437C964.875 961.016 1053.91 918.089 1148.18 779.775C1235.19 652.122 1344.55 414.768 1371.46 9.07159L1372.8 9.16729C1360.92 188.475 1332.07 350.195 1287.06 489.79C1251.04 601.501 1204.67 699.375 1149.2 780.732C1054.72 919.294 965.394 962.337 964.517 962.758Z" fill="#FFFFBF"/>
<path d="M1020.45 965.207L1019.72 964.001C1020.68 963.332 1116.77 894.912 1210.4 743.642C1296.8 604.027 1398.69 363.266 1393.48 9.12903L1394.83 9.10989C1397.14 165.662 1378.89 313.334 1340.61 448.03C1309.98 555.798 1266.54 655.548 1211.47 744.503C1117.69 896.003 1021.42 964.537 1020.45 965.207Z" fill="#FFFFBF"/>
<path d="M1145.87 962.528L1144.79 961.666C1145.47 960.69 1214.53 861.477 1287.17 694.303C1354.22 540.028 1438.14 294.655 1457.15 1.83725L1458.49 1.93294C1450.1 131.328 1428.43 262.349 1394.11 391.361C1366.66 494.555 1331.09 596.697 1288.39 694.954C1215.66 862.242 1146.57 961.532 1145.87 962.528Z" fill="#FFFFBF"/>
<path d="M1238.7 960.365L1237.54 959.657C1376.22 694.533 1439.32 449.121 1467.8 289.947C1498.69 117.472 1496.74 6.25832 1496.72 5.16743L1498.06 5.12915C1498.08 6.23918 1500.03 117.548 1469.13 290.177C1450.97 391.553 1425.23 493.924 1392.57 594.439C1351.75 720.083 1299.97 843.2 1238.7 960.365Z" fill="#FFFFBF"/>
<path d="M1290.91 960.193L1289.76 959.427C1425.62 725.901 1479.82 478.9 1501.36 312.798C1524.7 132.821 1515.79 6.44968 1515.7 5.18655L1517.04 5.07172C1517.13 6.33485 1526.05 132.821 1502.7 312.951C1488.98 418.748 1466.98 522.057 1437.31 620.046C1400.22 742.532 1350.96 856.98 1290.91 960.193Z" fill="#FFFFBF"/>
<path d="M1340.63 964.92L1339.41 964.289C1450.87 717.231 1506.76 469.599 1534.05 305.353C1563.61 127.385 1566.85 6.31573 1566.89 5.12915L1568.23 5.16743C1568.19 6.37315 1564.95 127.558 1535.39 305.602C1508.09 469.944 1452.16 717.729 1340.63 964.92Z" fill="#FFFFBF"/>
<path d="M1382.26 962.452L1381.13 961.667C1509.93 750.283 1564.74 501.484 1588.01 329.965C1613.24 144.131 1607.96 6.52626 1607.89 5.16743L1609.23 5.11002C1609.28 6.48798 1614.58 144.208 1589.34 330.176C1574.51 439.399 1552.19 543.665 1523.02 640.046C1486.55 760.541 1439.19 869.018 1382.26 962.452Z" fill="#FFFFBF"/>
<path d="M1428.58 968.901L1427.47 968.116C1557.29 759.125 1623.21 509.043 1655.64 336.071C1690.78 148.629 1695.28 8.86112 1695.31 7.46402L1696.66 7.5023C1696.62 8.8994 1692.11 148.782 1656.94 336.338C1636.28 446.48 1609.26 551.282 1576.59 647.816C1535.77 768.484 1485.96 876.52 1428.58 968.901Z" fill="#FFFFBF"/>
<path d="M1516.95 964.959L1515.79 964.25C1621.98 764.598 1686.02 515.072 1721.04 340.912C1758.98 152.189 1771.98 8.84193 1772.1 7.42569L1773.45 7.55966C1773.32 8.99504 1760.32 152.399 1722.35 341.199C1687.31 515.455 1623.23 765.134 1516.95 964.959Z" fill="#FFFFBF"/>
<path d="M1631.79 964.882L1630.55 964.346C1691.57 804.962 1732.48 552.641 1756.04 369.046C1781.57 170.083 1792.82 6.73678 1792.93 5.11002L1794.27 5.20571C1794.16 6.83247 1782.92 170.217 1757.37 369.218C1733.79 552.89 1692.86 805.345 1631.79 964.882Z" fill="#FFFFBF"/>
<path d="M1672.14 964.882L1670.91 964.327C1722.28 834.167 1752.71 628.218 1769.2 478.364C1787.07 315.975 1792.85 182.657 1792.93 181.336L1794.27 181.394C1794.21 182.714 1788.41 316.071 1770.55 478.518C1754.04 628.467 1723.56 834.568 1672.14 964.882Z" fill="#FFFFBF"/>
<path d="M1752.52 957.743L1751.24 957.322C1796.22 804.445 1792.96 432.298 1792.91 428.547L1794.25 428.528C1794.3 432.279 1797.58 804.655 1752.52 957.743Z" fill="#FFFFBF"/>
<path d="M1139.05 754.321C1057.85 721.422 979.896 661.691 907.349 576.793C849.339 508.89 794.642 424.815 744.779 326.922C659.877 160.246 617.892 9.22463 617.48 7.7127L618.769 7.31079C619.181 8.82273 661.13 159.71 745.96 326.252C824.219 479.896 956.03 678.667 1139.51 752.982L1139.05 754.321Z" fill="#FFFFBF"/>
<path d="M1122.27 771.967C1045.3 743.164 968.366 685.04 893.598 599.224C833.816 530.593 775.269 444.203 719.587 342.463C624.803 169.222 570.481 9.32046 569.944 7.73197L571.215 7.25351C571.752 8.842 626.038 168.629 720.769 341.755C808.177 501.484 948.851 705.538 1122.72 770.627L1122.27 771.967Z" fill="#FFFFBF"/>
<path d="M1083.56 822.512C1000.92 774.474 918.789 701.729 839.438 606.324C775.986 530.019 714.144 439.112 655.669 336.147C556.104 160.82 500.064 9.26302 499.509 7.75108L500.762 7.23434C501.317 8.74628 557.34 160.208 656.851 335.42C748.664 497.101 897.358 712.619 1084.22 821.248L1083.56 822.512Z" fill="#FFFFBF"/>
<path d="M997.335 892.443C914.51 846.128 832.778 770.647 754.393 668.122C691.711 586.133 631.015 486.747 574.008 372.721C476.932 178.619 423.506 7.08128 422.969 5.35883L424.24 4.89951C424.759 6.60282 478.167 178.045 575.19 372.051C664.711 551.072 810.72 786.436 997.944 891.161L997.335 892.443Z" fill="#FFFFBF"/>
<path d="M946.022 926.835C871.021 876.769 794.91 797.306 719.838 690.61C659.787 605.291 600.256 502.46 542.873 384.969C445.206 184.954 386.91 9.47357 386.337 7.73197L387.608 7.25351C388.181 8.9951 446.441 184.399 544.091 384.318C634.184 568.794 777.167 812.445 946.756 925.61L946.022 926.835Z" fill="#FFFFBF"/>
<path d="M858.488 955.944C715.792 781.306 583.981 532.794 498.542 355.075C405.96 162.523 346.356 9.28216 345.766 7.77022L347.001 7.21521C347.592 8.74628 407.177 161.93 499.724 354.424C585.127 532.067 716.884 780.464 859.491 954.987L858.488 955.944Z" fill="#FFFFBF"/>
<path d="M782.27 960.997C715.147 895.601 647.881 804.483 582.352 690.188C529.946 598.764 478.507 492.393 429.486 374.022C346.034 172.475 297.89 3.77026 297.406 2.08608L298.696 1.66504C299.179 3.34922 347.305 171.978 430.739 373.429C507.727 559.339 631.373 811.985 783.183 959.906L782.27 960.997Z" fill="#FFFFBF"/>
<path d="M748.717 960.327C675.185 883.869 603.747 786.187 536.392 670.036C482.5 577.119 431.097 472.24 383.579 358.29C302.67 164.303 260.595 9.22479 260.184 7.69372L261.473 7.29181C261.884 8.84202 303.941 163.825 384.797 357.735C459.421 536.679 583.283 786.302 749.648 959.294L748.717 960.327Z" fill="#FFFFBF"/>
<path d="M681.756 963.466C545.881 807.315 417.973 556.2 334.611 373.046C244.285 174.619 185.326 11.0046 184.735 9.37782L185.989 8.86108C186.579 10.4878 245.52 174.064 335.811 372.433C419.137 555.492 546.973 806.473 682.741 962.49L681.756 963.466Z" fill="#FFFFBF"/>
<path d="M623.03 960.901C484.219 768.637 351.298 518.651 264.23 342.788C169.911 152.246 107.604 5.26314 106.978 3.80862L108.195 3.21533C108.822 4.66985 171.11 151.615 265.412 342.118C352.444 517.924 485.329 767.852 624.086 960.021L623.03 960.901Z" fill="#FFFFBF"/>
<path d="M552.667 960.959C416.344 801.268 287.684 548.622 203.767 364.797C112.85 165.643 53.3902 2.1435 52.7993 0.516737L54.0526 0C54.6434 1.62676 114.085 165.088 204.985 364.185C288.866 547.914 417.454 800.426 553.651 959.983L552.667 960.959Z" fill="#FFFFBF"/>
<path d="M420.874 960.94C316.349 837.191 208.28 584.583 136.018 394.462C57.7232 188.513 3.45558 9.49273 2.91846 7.71286L4.18965 7.27267C4.72678 9.05255 58.9944 188.035 137.254 393.945C209.479 583.951 317.477 836.406 421.859 959.983L420.874 960.94Z" fill="#FFFFBF"/>
<path d="M342.812 965.035C252.682 834.434 166.222 592.582 109.556 412.681C48.1801 217.814 7.57342 51.6545 7.16162 50.0086L8.46863 49.645C8.86252 51.2909 49.4692 217.412 110.827 412.241C167.458 592.027 253.864 833.726 343.886 964.174L342.812 965.035Z" fill="#FFFFBF"/>
<path d="M208.781 964.901C107.175 723.662 3.15124 226.465 2.11279 221.47L3.4198 221.164C4.45824 226.159 108.446 723.202 210.016 964.308L208.781 964.901Z" fill="#FFFFBF"/>
<path d="M184.789 964.959C77.4893 762.398 0.76988 398.921 0 395.266L1.30701 394.959C2.07689 398.596 78.7605 761.881 185.953 964.251L184.789 964.959Z" fill="#FFFFBF"/>
<path d="M132.562 967.198C62.2169 820.674 5.01304 540.775 4.45801 537.961L5.76501 537.655C6.33795 540.469 63.4881 820.176 133.762 966.528L132.562 967.198Z" fill="#FFFFBF"/>
<path d="M72.9595 979.044C32.2096 897.955 4.70875 703.949 4.44019 701.997L5.7651 701.786C6.03366 703.738 33.4987 897.515 74.1412 978.374L72.9595 979.044Z" fill="#FFFFBF"/>
<path d="M1334.94 52.6306C1186.69 -0.229671 679.786 40.6308 674.684 41.0519L674.576 39.6165C679.679 39.1955 1186.87 -1.68419 1335.37 51.2718L1334.94 52.6306Z" fill="#FFFFBF"/>
<path d="M700.519 123.347L700.34 121.931C704.136 121.414 1082.95 69.9891 1332.36 121.931L1332.11 123.347C1082.92 71.4245 704.315 122.83 700.519 123.347Z" fill="#FFFFBF"/>
<path d="M731.243 209.106L730.974 207.69C733.785 207.097 1015.94 148.112 1327.17 168.284L1327.09 169.719C1016.03 149.548 734.054 208.513 731.243 209.106Z" fill="#FFFFBF"/>
<path d="M762.629 282.119L762.396 280.703C765.888 280.033 1114.55 215.135 1317.84 250.407L1317.62 251.823C1114.57 216.608 766.121 281.469 762.629 282.119Z" fill="#FFFFBF"/>
<path d="M780.283 316.243L779.996 314.846C782.807 314.214 1062.99 252.034 1308.76 288.435L1308.58 289.851C1063.04 253.488 783.076 315.612 780.283 316.243Z" fill="#FFFFBF"/>
<path d="M803.003 369.18L802.788 367.764C805.689 367.266 1094.98 317.736 1295.85 356.089L1295.62 357.505C1094.97 319.171 805.903 368.663 803.003 369.18Z" fill="#FFFFBF"/>
<path d="M1293.7 384.318C1138.04 361.027 817.452 383.266 814.229 383.495L814.139 382.06C817.362 381.83 1138.1 359.592 1293.9 382.902L1293.7 384.318Z" fill="#FFFFBF"/>
<path d="M866.957 433.963L866.796 432.547C869.284 432.203 1118.21 399.208 1279.85 420.126L1279.68 421.543C1118.21 400.643 869.445 433.638 866.957 433.963Z" fill="#FFFFBF"/>
<path d="M903.32 487.57L903.213 486.135C905.719 485.924 1155.45 465.35 1266.15 472.853L1266.06 474.288C1155.46 466.805 905.827 487.36 903.32 487.57Z" fill="#FFFFBF"/>
<path d="M981.848 587.319L981.633 585.903C982.94 585.674 1113.46 562.554 1230.9 570.057L1230.82 571.492C1113.55 564.009 983.155 587.09 981.848 587.319Z" fill="#FFFFBF"/>
<path d="M1054.11 664.409L1053.84 663.012C1054.81 662.801 1150.94 641.367 1200.64 646.936L1200.49 648.371C1150.99 642.802 1055.08 664.199 1054.11 664.409Z" fill="#FFFFBF"/>
</g>
<g style="mix-blend-mode:multiply" opacity="0.3">
<path fill-rule="evenodd" clip-rule="evenodd" d="M1329.94 9.10989C1329.94 9.10989 1332.25 368.453 1115.41 702.552L1141.75 719.336C1141.75 719.336 1043.65 905.017 841.103 962.088L887.063 960.423C887.045 960.442 1305.04 848.042 1329.94 9.10989Z" fill="url(#paint7_linear_1_1055)"/>
</g>
<g style="mix-blend-mode:multiply" opacity="0.3">
<path fill-rule="evenodd" clip-rule="evenodd" d="M7.82422 42.315C7.82422 42.315 129.483 655.797 314.792 996.365L380.93 1004.94C380.912 1004.94 140.978 661.002 7.82422 42.315Z" fill="url(#paint8_linear_1_1055)"/>
</g>
<defs>
<linearGradient id="paint0_linear_1_1055" x1="898.457" y1="960.433" x2="898.457" y2="3.51264" gradientUnits="userSpaceOnUse">
<stop offset="0.0171" stop-color="#FFC42C"/>
<stop offset="0.9665" stop-color="#FFD600"/>
</linearGradient>
<linearGradient id="paint1_linear_1_1055" x1="898.458" y1="960.433" x2="898.458" y2="3.51264" gradientUnits="userSpaceOnUse">
<stop offset="0.0171" stop-color="#FF8B2C"/>
<stop offset="0.0422" stop-color="#FF8D2A"/>
<stop offset="0.3782" stop-color="#FFA413"/>
<stop offset="0.6939" stop-color="#FFB105"/>
<stop offset="0.9665" stop-color="#FFB600"/>
</linearGradient>
<linearGradient id="paint2_linear_1_1055" x1="1340.36" y1="960.433" x2="1340.36" y2="3.51264" gradientUnits="userSpaceOnUse">
<stop offset="0.0171" stop-color="#FFA12C"/>
<stop offset="0.9665" stop-color="#FFC500"/>
</linearGradient>
<linearGradient id="paint3_linear_1_1055" x1="281.409" y1="1092.01" x2="281.409" y2="3.5126" gradientUnits="userSpaceOnUse">
<stop offset="0.0171" stop-color="#FFA12C"/>
<stop offset="0.9665" stop-color="#FFB600"/>
</linearGradient>
<linearGradient id="paint4_linear_1_1055" x1="1098.54" y1="968.996" x2="1098.54" y2="7.49118" gradientUnits="userSpaceOnUse">
<stop offset="0.0171" stop-color="#FFAE2C"/>
<stop offset="0.9665" stop-color="#FFCD00"/>
</linearGradient>
<linearGradient id="paint5_linear_1_1055" x1="910.018" y1="733.301" x2="910.018" y2="3.51264" gradientUnits="userSpaceOnUse">
<stop offset="0.0171" stop-color="#FFAE2C"/>
<stop offset="0.9665" stop-color="#FFCD00"/>
</linearGradient>
<linearGradient id="paint6_linear_1_1055" x1="153.104" y1="982.532" x2="153.104" y2="7.49117" gradientUnits="userSpaceOnUse">
<stop offset="0.0171" stop-color="#FFAE2C"/>
<stop offset="0.9665" stop-color="#FFCD00"/>
</linearGradient>
<linearGradient id="paint7_linear_1_1055" x1="841.099" y1="485.607" x2="1329.94" y2="485.607" gradientUnits="userSpaceOnUse">
<stop offset="0.00558659" stop-color="#DB5098"/>
<stop offset="1" stop-color="#FFFED1"/>
</linearGradient>
<linearGradient id="paint8_linear_1_1055" x1="7.81724" y1="523.627" x2="380.916" y2="523.627" gradientUnits="userSpaceOnUse">
<stop offset="0.00558659" stop-color="#DB5098"/>
<stop offset="1" stop-color="#FFFED1"/>
</linearGradient>
</defs>
</svg>
