<svg width="62" height="62" viewBox="0 0 62 62" fill="none" xmlns="http://www.w3.org/2000/svg">
<g clip-path="url(#clip0_1_250)">
<path d="M61.957 16.5192C51.243 13.9215 42.3499 14.1768 31 14.1768C19.6502 14.1768 10.757 13.9217 0.0429883 16.5194C0.0150156 16.7814 0 17.0473 0 17.3168V44.6832C0 48.7967 3.33468 52.1313 7.44811 52.1313H54.5518C58.6652 52.1313 61.9999 48.7967 61.9999 44.6832V17.3168C62 17.0473 61.985 16.7814 61.957 16.5192Z" fill="url(#paint0_linear_1_250)"/>
<path d="M35.1203 37.577C34.7572 36.6299 33.7833 36.0538 32.7816 36.2132C29.8755 36.6751 26.8281 36 24.3353 34.1869L21.5137 32.1349L18.3204 35.1575L21.6595 37.586C24.346 39.5399 27.5687 40.654 30.8904 40.6766C31.7534 40.6825 32.6068 40.6185 33.4445 40.4866C34.8005 40.2734 35.6116 38.8587 35.1203 37.577Z" fill="#04A5DE"/>
<path d="M61.957 16.5192C50.471 17.0419 31 23.1565 31 23.1565L59.5644 50.1921C61.0608 48.8298 62 46.8662 62 44.6832V17.3167C62 17.0473 61.985 16.7814 61.957 16.5192Z" fill="url(#paint1_linear_1_250)"/>
<path d="M0.0429883 16.5192C11.5291 17.0419 31 23.1565 31 23.1565L2.43556 50.1921C0.939203 48.8297 0 46.8662 0 44.6832V17.3167C0 17.0473 0.0150156 16.7814 0.0429883 16.5192Z" fill="url(#paint2_linear_1_250)"/>
<path d="M10.9306 39.1942C11.753 40.0522 13.1137 40.0854 13.9768 39.2685L21.5139 32.1348L0.0433516 16.5195C0.0152578 16.7815 0 17.0474 0 17.3168V21.8329L14.7645 32.5711L11.0055 36.1289C10.1347 36.9531 10.1012 38.3285 10.9306 39.1942Z" fill="#04A5DE"/>
<path d="M54.5519 9.86865H7.4481C3.6041 9.86865 0.441126 12.781 0.0430908 16.5194L24.3356 34.1871C28.3088 37.0767 33.6914 37.0767 37.6646 34.1871L61.9571 16.5194C61.5588 12.7808 58.3959 9.86865 54.5519 9.86865Z" fill="url(#paint3_linear_1_250)"/>
<path d="M20.1459 25.3274C21.1647 25.3274 21.9906 24.6636 21.9906 23.8449C21.9906 23.0262 21.1647 22.3625 20.1459 22.3625C19.1271 22.3625 18.3011 23.0262 18.3011 23.8449C18.3011 24.6636 19.1271 25.3274 20.1459 25.3274Z" fill="#EAADCD"/>
<path d="M41.8547 25.3274C42.8735 25.3274 43.6994 24.6636 43.6994 23.8449C43.6994 23.0262 42.8735 22.3625 41.8547 22.3625C40.8359 22.3625 40.0099 23.0262 40.0099 23.8449C40.0099 24.6636 40.8359 25.3274 41.8547 25.3274Z" fill="#EAADCD"/>
<path d="M23.3079 23.8449C25.3281 23.8449 26.9659 22.2072 26.9659 20.1869C26.9659 18.1667 25.3281 16.5289 23.3079 16.5289C21.2876 16.5289 19.6499 18.1667 19.6499 20.1869C19.6499 22.2072 21.2876 23.8449 23.3079 23.8449Z" fill="white"/>
<path d="M38.6917 23.8449C40.7119 23.8449 42.3497 22.2072 42.3497 20.1869C42.3497 18.1667 40.7119 16.5289 38.6917 16.5289C36.6714 16.5289 35.0337 18.1667 35.0337 20.1869C35.0337 22.2072 36.6714 23.8449 38.6917 23.8449Z" fill="white"/>
<path d="M23.3083 22.3671C24.5124 22.3671 25.4885 21.391 25.4885 20.1869C25.4885 18.9829 24.5124 18.0068 23.3083 18.0068C22.1042 18.0068 21.1281 18.9829 21.1281 20.1869C21.1281 21.391 22.1042 22.3671 23.3083 22.3671Z" fill="#3B3B44"/>
<path d="M38.692 22.3671C39.8961 22.3671 40.8722 21.391 40.8722 20.1869C40.8722 18.9829 39.8961 18.0068 38.692 18.0068C37.488 18.0068 36.5119 18.9829 36.5119 20.1869C36.5119 21.391 37.488 22.3671 38.692 22.3671Z" fill="#3B3B44"/>
<path d="M31.0003 23.9613C30.3521 23.9613 29.7041 23.7162 29.1754 23.2259C28.9254 22.994 28.9105 22.6034 29.1425 22.3532C29.3744 22.1031 29.7652 22.0882 30.0152 22.3202C30.5954 22.8581 31.4055 22.8581 31.9857 22.3202C32.2356 22.0883 32.6264 22.1031 32.8584 22.3532C33.0902 22.6032 33.0755 22.9939 32.8254 23.2259C32.2965 23.7161 31.6485 23.9613 31.0003 23.9613Z" fill="#3B3B44"/>
<path d="M47.6997 14.809H46.3306C45.6485 14.809 45.0956 14.2561 45.0956 13.574C45.0956 12.8918 45.6485 12.3389 46.3306 12.3389H47.6997C48.3818 12.3389 48.9347 12.8918 48.9347 13.574C48.9347 14.2561 48.3818 14.809 47.6997 14.809Z" fill="#DFF7FA"/>
<path d="M57.3097 16.0146C56.9765 16.0146 56.6443 15.8806 56.4008 15.6161C55.9285 15.1032 55.2546 14.8089 54.5519 14.8089H52.7465C52.0644 14.8089 51.5115 14.256 51.5115 13.5739C51.5115 12.8918 52.0644 12.3388 52.7465 12.3388H54.5519C55.9432 12.3388 57.2796 12.9235 58.218 13.9432C58.6801 14.445 58.6478 15.2263 58.1459 15.6883C57.9085 15.9069 57.6087 16.0146 57.3097 16.0146Z" fill="#DFF7FA"/>
</g>
<defs>
<linearGradient id="paint0_linear_1_250" x1="31.0024" y1="22.8784" x2="31.0024" y2="48.4118" gradientUnits="userSpaceOnUse">
<stop stop-color="#53AAE6"/>
<stop offset="1" stop-color="#A4D2F0"/>
</linearGradient>
<linearGradient id="paint1_linear_1_250" x1="45.9472" y1="33.3533" x2="68.2742" y2="33.3533" gradientUnits="userSpaceOnUse">
<stop stop-color="#53AAE6"/>
<stop offset="1" stop-color="#A4D2F0"/>
</linearGradient>
<linearGradient id="paint2_linear_1_250" x1="16.0499" y1="33.3533" x2="-6.27717" y2="33.3533" gradientUnits="userSpaceOnUse">
<stop stop-color="#53AAE6"/>
<stop offset="1" stop-color="#A4D2F0"/>
</linearGradient>
<linearGradient id="paint3_linear_1_250" x1="31.0025" y1="-3.42058" x2="31.0025" y2="28.0795" gradientUnits="userSpaceOnUse">
<stop stop-color="#74D2E8"/>
<stop offset="1" stop-color="#BAEAF5"/>
</linearGradient>
<clipPath id="clip0_1_250">
<rect width="62" height="62" fill="white"/>
</clipPath>
</defs>
</svg>
