<svg width="57" height="61" viewBox="0 0 57 61" fill="none" xmlns="http://www.w3.org/2000/svg">
<g clip-path="url(#clip0_1_630)" filter="url(#filter0_d_1_630)">
<path d="M44.6029 56.2154H12.3247C6.46632 56.2154 1.71143 51.4406 1.71143 45.5576V19.9237C1.71143 14.0407 6.46632 9.26593 12.3247 9.26593H44.6029C50.4613 9.26593 55.2162 14.0407 55.2162 19.9237V45.5576C55.2162 51.4406 50.4613 56.2154 44.6029 56.2154Z" fill="#F9B842"/>
<path d="M44.6029 56.2154H12.3247C6.46632 56.2154 1.71143 51.4406 1.71143 45.5576V19.9237C1.71143 14.0407 6.46632 9.26593 12.3247 9.26593H44.6029C50.4613 9.26593 55.2162 14.0407 55.2162 19.9237V45.5576C55.2162 51.4406 50.4613 56.2154 44.6029 56.2154Z" fill="#FFD27B"/>
<path d="M45.9824 4.94742C51.0781 4.94742 55.2163 9.49407 55.2163 15.1163V46.0465C55.2163 51.6524 50.0882 56.2154 44.9763 56.2154H33.584V4.94742H45.9824Z" fill="url(#paint0_linear_1_630)"/>
<path d="M10.9453 4.94742C5.84963 4.94742 1.7114 9.49407 1.7114 15.1163V46.0465C1.7114 51.6524 6.83955 56.2154 11.9515 56.2154H23.3438V4.94742H10.9453Z" fill="url(#paint1_linear_1_630)"/>
<path d="M44.6029 46.8613H12.3247C6.46632 46.8613 1.71143 42.0865 1.71143 36.2036V10.5859C1.71143 4.70299 6.46632 -0.0718079 12.3247 -0.0718079H44.6029C50.4613 -0.0718079 55.2162 4.70299 55.2162 10.5859V36.2199C55.2162 42.0865 50.4613 46.8613 44.6029 46.8613Z" fill="#FFDE32"/>
<path d="M35.0376 24.5243C34.962 24.6018 34.6767 24.933 34.4109 25.2055C32.8526 26.9191 28.7874 29.7239 26.6597 30.58C26.3366 30.7176 25.5196 31.0088 25.0831 31.0275C24.6649 31.0275 24.2662 30.9313 23.8857 30.7363C23.4115 30.4638 23.031 30.0351 22.8225 29.5289C22.6883 29.1776 22.4799 28.1265 22.4799 28.1078C22.2714 26.9578 22.1567 25.0893 22.1567 23.0244C22.1567 21.057 22.2714 19.2646 22.4421 18.0973C22.4616 18.0786 22.6701 16.7724 22.8981 16.3249C23.3164 15.5075 24.1333 15 25.0076 15L25.0831 15C25.6525 15.02 26.8499 15.5276 26.8499 15.5463C28.863 16.4037 32.8343 19.071 34.4304 20.8433C34.4304 20.8433 34.88 21.2988 35.0754 21.5833C35.3803 21.992 35.5314 22.4982 35.5314 23.0044C35.5314 23.5694 35.3607 24.0956 35.0376 24.5243Z" fill="white"/>
</g>
<defs>
<filter id="filter0_d_1_630" x="0" y="0" width="57" height="61" filterUnits="userSpaceOnUse" color-interpolation-filters="sRGB">
<feFlood flood-opacity="0" result="BackgroundImageFix"/>
<feColorMatrix in="SourceAlpha" type="matrix" values="0 0 0 0 0 0 0 0 0 0 0 0 0 0 0 0 0 0 127 0" result="hardAlpha"/>
<feOffset dy="3"/>
<feGaussianBlur stdDeviation="1"/>
<feColorMatrix type="matrix" values="0 0 0 0 0.870588 0 0 0 0 0.6 0 0 0 0 0.34902 0 0 0 1 0"/>
<feBlend mode="normal" in2="BackgroundImageFix" result="effect1_dropShadow_1_630"/>
<feBlend mode="normal" in="SourceGraphic" in2="effect1_dropShadow_1_630" result="shape"/>
</filter>
<linearGradient id="paint0_linear_1_630" x1="62.2829" y1="30.5824" x2="33.5874" y2="30.5824" gradientUnits="userSpaceOnUse">
<stop stop-color="#FFBE5C"/>
<stop offset="0.84375" stop-color="#FFA90B" stop-opacity="0"/>
</linearGradient>
<linearGradient id="paint1_linear_1_630" x1="-5.35521" y1="30.5824" x2="23.3403" y2="30.5824" gradientUnits="userSpaceOnUse">
<stop stop-color="#FFBE5C"/>
<stop offset="0.84375" stop-color="#FFA90B" stop-opacity="0"/>
</linearGradient>
<clipPath id="clip0_1_630">
<rect width="53" height="56" fill="white" transform="translate(2)"/>
</clipPath>
</defs>
</svg>
