<svg width="62" height="62" viewBox="0 0 62 62" fill="none" xmlns="http://www.w3.org/2000/svg">
<g clip-path="url(#clip0_1_275)">
<path d="M54.1429 54.7469C51.7268 50.0544 49.6835 47.6098 47.0017 44.928C44.3199 42.2463 41.8753 40.2029 37.1829 37.7868L34.5159 40.4538C32.0726 42.8971 27.2151 39.934 24.6408 37.3596C22.0663 34.7852 19.1034 29.9276 21.5466 27.4844L24.2137 24.8174C21.7975 20.1249 19.7543 17.6804 17.0725 14.9987C14.3906 12.317 11.9461 10.2736 7.25373 7.85744L4.58649 10.5244C-6.04391 21.155 3.86497 38.9127 13.4763 48.524C23.0877 58.1354 40.8455 68.0443 51.4759 57.4138L54.1429 54.7469Z" fill="url(#paint0_linear_1_275)"/>
<path d="M53.9868 51.4294C53.0238 50.4554 51.4522 50.451 50.4837 51.4195L47.9827 53.9206C45.8703 56.0329 43.3038 57.0598 40.1363 57.0598C36.7497 57.0598 33.0161 55.8889 29.3865 54.0676C28.2252 53.4849 26.811 53.9018 26.1503 55.0205C25.4232 56.2517 25.8861 57.846 27.1645 58.4864C35.5842 62.7041 44.8956 63.9942 51.476 57.4138L53.9769 54.9128C54.9378 53.952 54.9421 52.3955 53.9868 51.4294Z" fill="#E20000"/>
<path d="M25.7844 12.2924L19.7786 6.28656C16.7537 3.26166 11.8494 3.26166 8.82444 6.28656L7.25345 7.85744C9.02909 11.3026 11.7023 15.0052 14.3839 17.687C17.0656 20.3687 20.7682 23.0418 24.2135 24.8175L25.7844 23.2467C28.8093 20.2216 28.8093 15.3173 25.7844 12.2924Z" fill="#FFD000"/>
<path d="M49.708 36.216L55.7139 42.2219C58.7388 45.2468 58.7388 50.1511 55.7139 53.176L54.143 54.7468C50.6978 52.9712 46.9952 50.298 44.3135 47.6164C41.6319 44.9347 38.9588 41.2321 37.183 37.7869L38.7539 36.216C41.7788 33.191 46.6831 33.1911 49.708 36.216Z" fill="#FFD000"/>
<path d="M50.4836 51.4195L49.7865 52.1166C51.2182 53.1037 52.6969 54.0008 54.1321 54.7411C54.9341 53.7746 54.8872 52.34 53.9866 51.4294C53.0236 50.4554 51.452 50.4511 50.4836 51.4195Z" fill="#EFC534"/>
<path d="M56.5925 23.2856C56.5924 13.4277 48.5724 5.40782 38.7147 5.4077C37.2215 5.40758 36.0109 4.19697 36.0109 2.70379C36.011 1.2106 37.2215 -7.62939e-06 38.7148 -7.62939e-06C51.5541 0.000239383 62 10.4459 62.0002 23.2854C62.0002 24.7787 60.7897 25.9894 59.2964 25.9892C57.8034 25.9894 56.5925 24.7789 56.5925 23.2856Z" fill="#FFD000"/>
<path d="M46.3191 23.2852C46.3191 19.0923 42.9081 15.6812 38.7151 15.6812C37.2219 15.6812 36.0116 14.4707 36.0113 12.9773C36.0114 11.4841 37.2219 10.2735 38.7152 10.2735C45.8896 10.2736 51.7266 16.1106 51.7267 23.2849C51.7268 24.7783 50.5162 25.9889 49.0229 25.9887C47.5299 25.9891 46.3191 24.7785 46.3191 23.2852Z" fill="#FFD000"/>
<path d="M11.5199 10.94C11.2038 10.94 10.8877 10.8195 10.6466 10.5783C10.1643 10.096 10.1643 9.31396 10.6466 8.83155L11.0083 8.4698C11.5629 7.91538 12.2503 7.50756 12.9964 7.29056C13.6512 7.1 14.3367 7.47656 14.5271 8.13164C14.7177 8.78659 14.3411 9.47205 13.6862 9.6625C13.3332 9.76513 13.02 9.9515 12.7549 10.2165L12.3932 10.5783C12.152 10.8195 11.8359 10.94 11.5199 10.94Z" fill="#FFFDE3"/>
<path d="M4.9374 19.1091C4.80698 19.1091 4.67446 19.0882 4.54403 19.0445C3.89748 18.8274 3.54919 18.1272 3.76632 17.4805C4.36816 15.6884 5.35065 14.1271 6.76998 12.7077L7.05219 12.4254C7.53449 11.9432 8.31652 11.943 8.79882 12.4252C9.28123 12.9075 9.28123 13.6894 8.79906 14.1718L8.51673 14.4542C7.37331 15.5976 6.58547 16.8446 6.10799 18.2668C5.93471 18.783 5.45341 19.1091 4.9374 19.1091Z" fill="white"/>
</g>
<defs>
<linearGradient id="paint0_linear_1_275" x1="27.0004" y1="65.5" x2="27.0716" y2="31.7809" gradientUnits="userSpaceOnUse">
<stop stop-color="#E61F1F"/>
<stop offset="1" stop-color="#FF6969"/>
</linearGradient>
<clipPath id="clip0_1_275">
<rect width="62" height="62" fill="white"/>
</clipPath>
</defs>
</svg>
