<svg width="24" height="24" viewBox="0 0 24 24" fill="none" xmlns="http://www.w3.org/2000/svg">
<path fill-rule="evenodd" clip-rule="evenodd" d="M5.293 5.29299C5.48053 5.10552 5.73484 5.0002 6 5.0002C6.26516 5.0002 6.51947 5.10552 6.707 5.29299L12 10.586L17.293 5.29299C17.3852 5.19748 17.4956 5.1213 17.6176 5.06889C17.7396 5.01648 17.8708 4.98889 18.0036 4.98774C18.1364 4.98659 18.2681 5.01189 18.391 5.06217C18.5138 5.11245 18.6255 5.1867 18.7194 5.28059C18.8133 5.37449 18.8875 5.48614 18.9378 5.60904C18.9881 5.73193 19.0134 5.86361 19.0123 5.99639C19.0111 6.12917 18.9835 6.26039 18.9311 6.38239C18.8787 6.5044 18.8025 6.61474 18.707 6.70699L13.414 12L18.707 17.293C18.8892 17.4816 18.99 17.7342 18.9877 17.9964C18.9854 18.2586 18.8802 18.5094 18.6948 18.6948C18.5094 18.8802 18.2586 18.9854 17.9964 18.9877C17.7342 18.9899 17.4816 18.8891 17.293 18.707L12 13.414L6.707 18.707C6.5184 18.8891 6.2658 18.9899 6.0036 18.9877C5.7414 18.9854 5.49059 18.8802 5.30518 18.6948C5.11977 18.5094 5.0146 18.2586 5.01233 17.9964C5.01005 17.7342 5.11084 17.4816 5.293 17.293L10.586 12L5.293 6.70699C5.10553 6.51946 5.00021 6.26515 5.00021 5.99999C5.00021 5.73483 5.10553 5.48052 5.293 5.29299Z" fill="#FF8A00"/>
</svg>
